<?xml version="1.0" encoding="UTF-8"?>
<!-- Generator: visioncortex VTracer 0.6.3 -->
<svg version="1.1" xmlns="http://www.w3.org/2000/svg" width="491" height="509">
<path d="M0 0 C1.1 -0 2.19 -0.01 3.32 -0.01 C4.52 -0.01 5.71 -0.01 6.95 -0.01 C8.22 -0.02 9.5 -0.02 10.82 -0.02 C14.36 -0.03 17.9 -0.04 21.44 -0.04 C25.26 -0.04 29.08 -0.05 32.9 -0.06 C42.13 -0.08 51.36 -0.09 60.59 -0.1 C64.94 -0.11 69.29 -0.11 73.63 -0.12 C88.1 -0.13 102.56 -0.15 117.03 -0.16 C120.78 -0.16 124.53 -0.16 128.28 -0.16 C129.22 -0.16 130.15 -0.16 131.11 -0.16 C146.21 -0.17 161.3 -0.2 176.4 -0.23 C191.91 -0.26 207.42 -0.28 222.93 -0.28 C231.63 -0.28 240.34 -0.29 249.04 -0.32 C256.46 -0.34 263.87 -0.35 271.29 -0.34 C275.06 -0.33 278.84 -0.34 282.62 -0.36 C286.73 -0.38 290.84 -0.37 294.95 -0.35 C296.72 -0.37 296.72 -0.37 298.52 -0.39 C309.79 -0.3 320.6 2.57 330.65 7.7 C331.31 8.03 331.97 8.37 332.66 8.72 C349.14 17.56 360.03 32.94 365.59 50.52 C368.11 59.3 369.09 67.25 369.03 76.43 C369.03 77.81 369.04 79.18 369.05 80.55 C369.06 84.27 369.06 87.99 369.04 91.71 C369.03 95.74 369.05 99.77 369.06 103.8 C369.08 111.68 369.07 119.56 369.06 127.44 C369.05 133.84 369.05 140.25 369.06 146.66 C369.06 147.57 369.06 148.49 369.06 149.43 C369.06 151.29 369.06 153.15 369.06 155.01 C369.07 172.41 369.06 189.8 369.04 207.2 C369.02 222.1 369.02 237 369.04 251.91 C369.06 269.24 369.07 286.58 369.06 303.92 C369.06 305.77 369.06 307.62 369.06 309.48 C369.05 310.84 369.05 310.84 369.05 312.24 C369.05 318.63 369.06 325.02 369.07 331.42 C369.08 339.22 369.07 347.02 369.05 354.82 C369.04 358.79 369.04 362.77 369.05 366.74 C369.14 397.32 369.14 397.32 364.52 410.13 C364.13 411.24 363.74 412.34 363.34 413.48 C358.99 425.26 351.7 435.71 341.52 443.13 C340.86 443.13 340.2 443.13 339.52 443.13 C339.52 443.79 339.52 444.45 339.52 445.13 C321.56 454.63 306.32 458.3 285.94 458.27 C284.73 458.27 283.52 458.27 282.28 458.27 C278.96 458.28 275.64 458.28 272.32 458.28 C268.73 458.28 265.14 458.28 261.54 458.29 C254.52 458.3 247.49 458.3 240.47 458.3 C234.75 458.3 229.03 458.3 223.32 458.31 C207.09 458.32 190.85 458.32 174.62 458.32 C173.75 458.32 172.87 458.32 171.97 458.32 C171.1 458.32 170.22 458.32 169.32 458.32 C155.15 458.32 140.98 458.33 126.81 458.34 C112.23 458.36 97.66 458.36 83.08 458.36 C74.9 458.36 66.73 458.37 58.56 458.38 C51.6 458.39 44.64 458.39 37.68 458.38 C34.14 458.38 30.59 458.38 27.05 458.39 C-0.05 458.45 -25.11 457.63 -45.73 437.57 C-52.14 431.09 -56.49 424.31 -60.48 416.13 C-60.9 415.37 -61.31 414.61 -61.74 413.82 C-69.78 398.07 -67.92 378.82 -67.89 361.68 C-67.88 357.69 -67.89 353.69 -67.9 349.7 C-67.92 341.89 -67.92 334.08 -67.92 326.28 C-67.91 319.93 -67.92 313.58 -67.92 307.23 C-67.92 306.33 -67.92 305.42 -67.92 304.49 C-67.92 302.64 -67.93 300.8 -67.93 298.96 C-67.94 281.72 -67.94 264.48 -67.92 247.24 C-67.91 231.5 -67.93 215.76 -67.95 200.01 C-67.98 183.81 -67.98 167.61 -67.98 151.41 C-67.97 142.32 -67.98 133.24 -67.99 124.16 C-68.01 116.43 -68.01 108.7 -67.99 100.97 C-67.98 97.04 -67.98 93.1 -68 89.16 C-68.01 85.55 -68.01 81.94 -67.99 78.32 C-67.98 76.42 -68 74.51 -68.01 72.61 C-67.88 56.53 -63.1 39.46 -52.48 27.13 C-51.81 26.35 -51.15 25.56 -50.46 24.75 C-44.31 17.65 -44.31 17.65 -40.48 15.13 C-39.82 15.13 -39.16 15.13 -38.48 15.13 C-38.48 14.47 -38.48 13.81 -38.48 13.13 C-27.96 5.23 -13.17 0.02 0 0 Z " fill="#D3DAE1" transform="translate(93.47998714447021,19.865778923034668)"/>
<path d="M0 0 C143.22 0 286.44 0 434 0 C434.04 49.66 434.08 99.33 434.12 150.5 C434.14 166.17 434.16 181.85 434.18 197.99 C434.19 217.16 434.19 217.16 434.19 226.13 C434.19 232.39 434.2 238.65 434.21 244.91 C434.22 252.13 434.23 259.36 434.23 266.59 C434.23 270.28 434.23 273.97 434.24 277.67 C434.34 314.32 434.34 314.32 431 321 C430.34 321 429.68 321 429 321 C428.67 322.65 428.34 324.3 428 326 C427.01 325.67 426.02 325.34 425 325 C424.67 326.32 424.34 327.64 424 329 C423.34 329 422.68 329 422 329 C422 329.99 422 330.98 422 332 C421.53 332.45 421.05 332.91 420.56 333.38 C418.55 335.46 418.38 337.18 418 340 C417.34 340 416.68 340 416 340 C416 340.66 416 341.32 416 342 C414.02 342.66 412.04 343.32 410 344 C409.67 345.65 409.34 347.3 409 349 C408.09 348.71 407.19 348.42 406.25 348.12 C399.52 347.11 392.92 352.18 387.45 355.6 C384.98 357.01 382.72 357.88 380 358.69 C379.18 358.94 378.35 359.19 377.5 359.45 C374.92 360.02 372.63 360.1 370 360 C370.33 359.34 370.66 358.68 371 358 C372.32 358 373.64 358 375 358 C375 357.34 375 356.68 375 356 C375.9 355.77 376.81 355.54 377.74 355.3 C378.92 354.97 380.1 354.65 381.31 354.31 C382.48 354 383.66 353.69 384.86 353.36 C388.55 351.76 389.05 350.37 391 347 C393.26 346.51 393.26 346.51 395.69 346.69 C396.9 346.76 396.9 346.76 398.14 346.82 C398.75 346.88 399.37 346.94 400 347 C401.03 344.95 402.05 342.9 403 340.81 C404 339 404 339 406 338 C406.66 335.47 406.66 335.47 407 333 C406.34 333 405.68 333 405 333 C404.97 331.52 404.95 330.04 404.94 328.56 C404.93 327.74 404.91 326.92 404.9 326.07 C405 324 405 324 406 323 C408.31 323 410.62 323 413 323 C413 317.72 413 312.44 413 307 C412.34 307 411.68 307 411 307 C411 305.68 411 304.36 411 303 C409.02 303 407.04 303 405 303 C404.96 300.67 404.96 298.33 405 296 C406 295 406 295 408.56 294.94 C409.37 294.96 410.17 294.98 411 295 C411.33 293.68 411.66 292.36 412 291 C412.99 291 413.98 291 415 291 C415 290.34 415 289.68 415 289 C414.34 289 413.68 289 413 289 C413 287.68 413 286.36 413 285 C412.34 285 411.68 285 411 285 C411 284.34 411 283.68 411 283 C409.68 283 408.36 283 407 283 C407 282.34 407 281.68 407 281 C406.34 281 405.68 281 405 281 C405 282.32 405 283.64 405 285 C399.72 285 394.44 285 389 285 C389 283.68 389 282.36 389 281 C378.44 281 367.88 281 357 281 C357 279.02 357 277.04 357 275 C346.44 275 335.88 275 325 275 C324.34 273.02 323.68 271.04 323 269 C323.66 268.34 324.32 267.68 325 267 C324.51 265.99 324.03 264.98 323.52 263.94 C321.93 260.21 321.62 257.05 321.61 252.97 C321.61 252.3 321.6 251.63 321.6 250.94 C321.58 248.71 321.59 246.48 321.6 244.25 C321.59 242.64 321.59 241.03 321.58 239.42 C321.56 235.97 321.56 232.52 321.56 229.07 C321.56 223.61 321.54 218.15 321.52 212.69 C321.48 202.09 321.46 191.49 321.44 180.89 C321.42 167.4 321.39 153.9 321.34 140.4 C321.32 134.98 321.31 129.55 321.3 124.13 C321.3 120.75 321.29 117.38 321.28 114 C321.27 112.44 321.27 110.87 321.28 109.31 C321.28 107.17 321.27 105.04 321.26 102.9 C321.26 101.11 321.26 101.11 321.25 99.28 C320.58 90.58 316.03 85.6 309.76 80 C308.36 78.8 306.94 77.61 305.5 76.45 C305.01 75.97 304.51 75.49 304 75 C304 74.34 304 73.68 304 73 C303.38 72.75 302.76 72.5 302.12 72.25 C299.6 70.76 299.28 69.56 298 67 C297.4 66.7 296.79 66.41 296.17 66.1 C293.67 64.83 292.2 63.37 290.28 61.33 C289.57 60.6 288.87 59.87 288.14 59.12 C286.7 57.61 285.25 56.09 283.81 54.56 C281.61 52.29 279.33 50.14 277 48 C276.35 47.37 275.7 46.73 275.03 46.08 C265.21 38.21 252.57 40.03 240.66 40.14 C238.18 40.14 235.69 40.14 233.2 40.13 C228 40.13 222.81 40.16 217.61 40.2 C210.97 40.25 204.33 40.25 197.7 40.23 C192.57 40.22 187.43 40.23 182.3 40.25 C179.86 40.26 177.41 40.26 174.97 40.26 C158.39 40.24 144.67 40.26 132.15 52.55 C121.24 64.95 119.4 78.92 119.45 94.79 C119.45 96.56 119.43 98.32 119.42 100.09 C119.4 104.85 119.39 109.6 119.39 114.36 C119.39 119.35 119.36 124.33 119.34 129.32 C119.3 138.74 119.28 148.16 119.27 157.59 C119.25 168.32 119.21 179.06 119.17 189.79 C119.09 211.86 119.04 233.93 119 256 C118.67 256 118.34 256 118 256 C116.78 249.36 116.89 242.8 116.94 236.06 C116.94 234.9 116.95 233.74 116.95 232.54 C116.96 229.7 116.98 226.85 117 224 C116.34 224 115.68 224 115 224 C115 223.01 115 222.02 115 221 C114.34 221 113.68 221 113 221 C113 219.68 113 218.36 113 217 C112.34 217 111.68 217 111 217 C111 216.34 111 215.68 111 215 C110.34 215 109.68 215 109 215 C109 215.66 109 216.32 109 217 C108.34 217 107.68 217 107 217 C107 217.91 107 218.81 107 219.75 C107 227.5 107 235.25 107 243 C109.97 242.67 112.94 242.34 116 242 C116.06 243.31 116.12 244.63 116.18 245.98 C116.27 247.72 116.35 249.45 116.44 251.19 C116.48 252.05 116.52 252.92 116.56 253.81 C116.73 257.28 116.89 260.53 117.66 263.93 C118 266 118 266 116 269 C115.01 269 114.02 269 113 269 C113 270.32 113 271.64 113 273 C112.34 273 111.68 273 111 273 C111 273.66 111 274.32 111 275 C112.98 275 114.96 275 117 275 C117.66 277.64 118.32 280.28 119 283 C118.34 283 117.68 283 117 283 C117 285.64 117 288.28 117 291 C115.02 291 113.04 291 111 291 C111 296.28 111 301.56 111 307 C112.98 307 114.96 307 117 307 C117 310.3 117 313.6 117 317 C111.72 317 106.44 317 101 317 C101 318.98 101 320.96 101 323 C101.92 322.96 102.84 322.93 103.79 322.89 C107.29 322.76 110.78 322.64 114.28 322.52 C115.77 322.47 117.27 322.41 118.77 322.35 C128.93 321.96 138.86 322.11 149 323 C148.97 321.3 148.97 321.3 148.94 319.56 C149 316 149 316 150 315 C152.53 314.93 155.03 314.91 157.56 314.94 C158.63 314.94 158.63 314.94 159.72 314.95 C161.48 314.96 163.24 314.98 165 315 C165 317.64 165 320.28 165 323 C160.38 323 155.76 323 151 323 C151 328.28 151 333.56 151 339 C150.34 339 149.68 339 149 339 C149 340.32 149 341.64 149 343 C149.66 343 150.32 343 151 343 C151 343.66 151 344.32 151 345 C152.32 345 153.64 345 155 345 C155 345.66 155 346.32 155 347 C155.66 347 156.32 347 157 347 C157 347.66 157 348.32 157 349 C157.66 349 158.32 349 159 349 C159 350.32 159 351.64 159 353 C159.66 353 160.32 353 161 353 C161.33 354.32 161.66 355.64 162 357 C149.79 357 137.58 357 125 357 C123.75 354.51 124.22 353.59 125 351 C124.34 351 123.68 351 123 351 C123 350.34 123 349.68 123 349 C122.34 349 121.68 349 121 349 C121 348.34 121 347.68 121 347 C119.68 347 118.36 347 117 347 C117 349.64 117 352.28 117 355 C114.52 355.03 112.04 355.05 109.56 355.06 C108.86 355.07 108.15 355.08 107.42 355.09 C105.61 355.1 103.81 355.05 102 355 C101.67 354.67 101.34 354.34 101 354 C101 352.35 101 350.7 101 349 C95.72 349 90.44 349 85 349 C84.67 350.65 84.34 352.3 84 354 C78.35 355.28 72.83 355.18 67.06 355.19 C65.99 355.2 64.92 355.21 63.81 355.22 C58.49 355.23 53.96 355.18 49 353 C49 352.34 49 351.68 49 351 C50.32 351 51.64 351 53 351 C53 347.7 53 344.4 53 341 C52.34 341 51.68 341 51 341 C51 340.34 51 339.68 51 339 C49.61 339.02 49.61 339.02 48.19 339.04 C46.99 339.04 45.8 339.05 44.56 339.06 C43.37 339.07 42.17 339.09 40.94 339.1 C38 339 38 339 37 338 C36.96 336.33 36.96 334.67 37 333 C35.01 333.03 33.03 333.07 31.04 333.1 C29 333 29 333 26 332 C24.68 332 23.36 332 22 332 C21.73 330.91 21.46 329.81 21.19 328.69 C20.12 325.38 19.65 324.05 17 322 C17.33 321.01 17.66 320.02 18 319 C18.33 319.66 18.66 320.32 19 321 C19.66 321 20.32 321 21 321 C21 317.7 21 314.4 21 311 C18.36 311 15.72 311 13 311 C12.01 308.69 11.02 306.38 10 304 C9.67 305.65 9.34 307.3 9 309 C8.34 309 7.68 309 7 309 C7 308.34 7 307.68 7 307 C6.34 306.67 5.68 306.34 5 306 C4.74 300.63 4.74 300.63 5 298 C5.98 296.98 6.98 295.98 8 295 C8.58 292.33 8.78 289.74 9 287 C8.34 287 7.68 287 7 287 C7 286.34 7 285.68 7 285 C6.34 285 5.68 285 5 285 C3.72 281.15 3.93 278.05 4 274 C4.66 274 5.32 274 6 274 C6 273.22 6 272.43 6 271.62 C6 270.08 6 268.54 6 267 C5.94 265.56 5.87 264.11 5.8 262.67 C5.11 247.97 4.71 233.28 4.44 218.56 C4.39 216.35 4.35 214.15 4.31 211.94 C4.2 206.63 4.1 201.31 4 196 C3.67 196 3.34 196 3 196 C2.67 231.64 2.34 267.28 2 304 C1.67 304 1.34 304 1 304 C0.06 296.87 -0.14 289.9 -0.12 282.72 C-0.12 281.51 -0.12 280.3 -0.12 279.05 C-0.12 275.71 -0.12 272.37 -0.12 269.03 C-0.11 265.36 -0.11 261.7 -0.11 258.03 C-0.11 250.93 -0.11 243.82 -0.1 236.72 C-0.1 228.49 -0.1 220.27 -0.09 212.04 C-0.09 190.34 -0.08 168.64 -0.06 146.94 C-0.04 98.45 -0.02 49.96 0 0 Z " fill="#E5E9ED" transform="translate(27,109)"/>
<path d="M0 0 C1.52 -0 1.52 -0 3.08 -0 C6.41 0 9.73 0.02 13.06 0.03 C15.38 0.04 17.7 0.04 20.02 0.04 C26.1 0.05 32.18 0.07 38.26 0.09 C44.47 0.11 50.69 0.12 56.9 0.13 C69.08 0.15 81.25 0.18 93.43 0.23 C93.43 1.42 93.43 2.62 93.43 3.85 C93.43 8.32 93.47 12.78 93.53 17.25 C93.55 19.18 93.55 21.1 93.55 23.03 C93.09 36.62 93.09 36.62 98.56 48.61 C104.23 53.52 108.03 54.83 115.33 54.84 C116.58 54.86 116.58 54.86 117.86 54.89 C120.51 54.93 123.16 54.96 125.81 54.98 C127.61 55.01 129.41 55.04 131.22 55.07 C135.62 55.14 140.03 55.19 144.43 55.23 C144.52 74.74 144.6 94.26 144.64 113.77 C144.66 122.83 144.69 131.9 144.73 140.96 C144.77 148.86 144.8 156.76 144.81 164.66 C144.81 168.84 144.83 173.02 144.85 177.21 C144.88 181.15 144.89 185.09 144.88 189.03 C144.88 190.47 144.89 191.91 144.91 193.35 C145.02 204.8 143.53 213.9 135.5 222.47 C129.27 227.77 122.09 230.34 114.01 230.37 C112.9 230.38 111.8 230.39 110.67 230.4 C108.86 230.4 108.86 230.4 107.02 230.4 C105.75 230.41 104.47 230.42 103.16 230.42 C98.95 230.44 94.73 230.46 90.52 230.47 C89.06 230.47 87.61 230.47 86.15 230.48 C79.32 230.5 72.48 230.51 65.64 230.52 C57.77 230.53 49.89 230.56 42.02 230.6 C35.92 230.63 29.82 230.64 23.72 230.64 C20.09 230.65 16.45 230.66 12.81 230.68 C8.75 230.71 4.68 230.7 0.62 230.7 C-0.57 230.71 -1.76 230.72 -2.99 230.74 C-11.51 230.68 -18.95 229.19 -25.88 223.98 C-36.32 213.3 -37.01 201.24 -36.94 187.1 C-36.94 185.37 -36.95 183.64 -36.95 181.91 C-36.96 177.23 -36.95 172.55 -36.94 167.87 C-36.93 162.96 -36.93 158.05 -36.93 153.14 C-36.93 144.9 -36.92 136.66 -36.9 128.42 C-36.88 118.91 -36.88 109.39 -36.89 99.88 C-36.89 90.71 -36.89 81.54 -36.88 72.37 C-36.87 68.47 -36.87 64.58 -36.87 60.68 C-36.87 56.09 -36.87 51.5 -36.85 46.91 C-36.85 45.23 -36.84 43.55 -36.85 41.87 C-36.88 18.61 -36.88 18.61 -29.57 9.23 C-20.7 1.09 -11.63 -0.09 0 0 Z " fill="#E4E8EE" transform="translate(193.568603515625,159.77294921875)"/>
<path d="M0 0 C1.1 -0 2.19 -0.01 3.32 -0.01 C4.52 -0.01 5.71 -0.01 6.95 -0.01 C8.22 -0.02 9.5 -0.02 10.82 -0.02 C14.36 -0.03 17.9 -0.04 21.44 -0.04 C25.26 -0.04 29.08 -0.05 32.9 -0.06 C42.13 -0.08 51.36 -0.09 60.59 -0.1 C64.94 -0.11 69.29 -0.11 73.63 -0.12 C88.1 -0.13 102.56 -0.15 117.03 -0.16 C120.78 -0.16 124.53 -0.16 128.28 -0.16 C129.22 -0.16 130.15 -0.16 131.11 -0.16 C146.21 -0.17 161.3 -0.2 176.4 -0.23 C191.91 -0.26 207.42 -0.28 222.93 -0.28 C231.63 -0.28 240.34 -0.29 249.04 -0.32 C256.46 -0.34 263.87 -0.35 271.29 -0.34 C275.06 -0.33 278.84 -0.34 282.62 -0.36 C286.73 -0.38 290.84 -0.37 294.95 -0.35 C296.72 -0.37 296.72 -0.37 298.52 -0.39 C309.79 -0.3 320.6 2.57 330.65 7.7 C331.31 8.03 331.97 8.37 332.66 8.72 C347.76 16.82 359.08 30.99 364.52 47.13 C367.52 57.13 367.52 57.13 367.52 88.13 C224.3 88.13 81.08 88.13 -66.48 88.13 C-66.48 51.08 -66.48 51.08 -60.48 40.13 C-59.99 38.98 -59.99 38.98 -59.5 37.8 C-55.7 29.08 -48.53 20.33 -40.48 15.13 C-39.82 15.13 -39.16 15.13 -38.48 15.13 C-38.48 14.47 -38.48 13.81 -38.48 13.13 C-27.96 5.23 -13.17 0.02 0 0 Z " fill="#243241" transform="translate(93.47998714447021,19.865778923034668)"/>
<path d="M0 0 C0 2.97 0 5.94 0 9 C1.32 9.33 2.64 9.66 4 10 C4.8 10.99 5.61 11.98 6.44 13 C9.26 16.3 9.97 16.35 14 17 C15.38 18.94 15.38 18.94 16 21 C15.67 21.66 15.34 22.32 15 23 C14.79 28.61 14.79 28.61 16 34 C21.07 36.74 25.82 35.77 31.29 35 C34 35 34 35 35.8 36.35 C37 38 37 38 38 40 C40.13 40.47 40.13 40.47 42.56 40.62 C43.39 40.7 44.22 40.77 45.07 40.85 C45.7 40.9 46.34 40.95 47 41 C47.5 43.47 47.5 43.47 48 46 C50.97 46 53.94 46 57 46 C57.5 47.98 57.5 47.98 58 50 C62 48.7 63.6 47.39 66 44 C66.99 43.67 67.98 43.34 69 43 C69.5 42.01 69.5 42.01 70 41 C68.51 41.5 68.51 41.5 67 42 C67 41.34 67 40.68 67 40 C67.66 40 68.32 40 69 40 C69.5 39.01 69.5 39.01 70 38 C69.34 37.34 68.68 36.68 68 36 C68.99 35.67 69.98 35.34 71 35 C71 33.68 71 32.36 71 31 C72.65 30.67 74.3 30.34 76 30 C75.67 31.65 75.34 33.3 75 35 C77.51 33.74 77.87 32.5 79 30 C79.33 31.98 79.66 33.96 80 36 C79.34 36 78.68 36 78 36 C78.33 37.98 78.66 39.96 79 42 C84.61 42 90.22 42 96 42 C96 47.94 96 53.88 96 60 C101.28 60 106.56 60 112 60 C112 54.06 112 48.12 112 42 C122.56 42 133.12 42 144 42 C144 39.36 144 36.72 144 34 C149.28 34 154.56 34 160 34 C160 36.64 160 39.28 160 42 C170.56 42 181.12 42 192 42 C192 39.36 192 36.72 192 34 C197.28 34 202.56 34 208 34 C208 30.7 208 27.4 208 24 C213.28 24 218.56 24 224 24 C224 24.66 224 25.32 224 26 C226.97 26 229.94 26 233 26 C233 31.28 233 36.56 233 42 C235.31 42 237.62 42 240 42 C240 42.66 240 43.32 240 44 C237.36 44 234.72 44 232 44 C232 48.62 232 53.24 232 58 C228.53 58.5 228.53 58.5 225 59 C237.54 59 250.08 59 263 59 C260.69 58.67 258.38 58.34 256 58 C256.02 56.39 256.02 56.39 256.04 54.75 C256.04 53.31 256.05 51.87 256.06 50.44 C256.07 49.73 256.08 49.03 256.09 48.3 C256.11 43.77 255.72 39.49 255 35 C255 32.27 255.27 29.59 255.5 26.88 C255.59 25.78 255.69 24.68 255.78 23.55 C255.85 22.71 255.93 21.87 256 21 C256.66 21 257.32 21 258 21 C258.33 21.66 258.66 22.32 259 23 C260.49 20.03 260.49 20.03 262 17 C262.66 17 263.32 17 264 17 C263.92 17.88 263.84 18.77 263.75 19.68 C263.26 29.03 264.85 34.84 271 42 C276.21 44.61 286.09 43.82 291.54 42.28 C294.47 40.73 295.91 39.18 297.44 36.25 C297.62 35.51 297.81 34.77 298 34 C298.66 34 299.32 34 300 34 C299.86 31.56 299.71 29.12 299.56 26.69 C299.52 26 299.48 25.31 299.44 24.6 C299.25 21.53 298.98 18.93 298 16 C299.65 15.34 301.3 14.68 303 14 C302.67 12.68 302.34 11.36 302 10 C303.11 10.31 303.11 10.31 304.25 10.62 C307.43 11.06 308.25 10.46 311 9 C313.75 8.88 313.75 8.88 316 9 C316 10.65 316 12.3 316 14 C315.01 14 314.02 14 313 14 C312.34 19.28 311.68 24.56 311 30 C311.66 30 312.32 30 313 30 C314 33 315 36 316 39 C316.99 39.33 317.98 39.66 319 40 C320.21 40.99 320.21 40.99 321.44 42 C325.98 45.19 331.64 44.83 337 45 C337 44.34 337 43.68 337 43 C338.98 43 340.96 43 343 43 C343.27 42.46 343.54 41.93 343.81 41.38 C345 39 345 39 346.56 36.44 C348.95 30.72 350.17 24.08 347.88 18.12 C345.92 14.87 343.7 12.63 341 10 C340.19 7.69 340.19 7.69 340 6 C337.36 6 334.72 6 332 6 C331.67 5.34 331.34 4.68 331 4 C331.64 3.88 332.28 3.75 332.94 3.62 C333.62 3.42 334.3 3.21 335 3 C335.33 2.34 335.66 1.68 336 1 C338.65 0.41 341.29 0.26 344 0 C344.33 0.99 344.66 1.98 345 3 C347 4.21 347 4.21 349 5 C349 6.98 349 8.96 349 11 C349.66 11 350.32 11 351 11 C351.4 9.55 351.4 9.55 351.81 8.06 C352.2 7.05 352.6 6.04 353 5 C354.49 4.51 354.49 4.51 356 4 C359.08 8.31 359.08 8.31 358.69 11.81 C358.35 12.9 358.35 12.9 358 14 C357.34 14 356.68 14 356 14 C356 14.66 356 15.32 356 16 C354.5 17.62 354.5 17.62 353 19 C355.9 19.68 355.9 19.68 359 20 C359.66 19.34 360.32 18.68 361 18 C363.31 17.19 363.31 17.19 366 17 C368.56 18.38 368.56 18.38 371 20 C371.64 20.05 372.29 20.1 372.95 20.16 C375 21 375 21 376.7 23.95 C382.83 40.51 381 50.22 381 70 C237.78 70 94.56 70 -53 70 C-53 42 -53 42 -49 34 C-48.67 34.66 -48.34 35.32 -48 36 C-47.84 32.95 -47.84 32.95 -49 30 C-48.34 29.01 -47.68 28.02 -47 27 C-47 26.34 -47 25.68 -47 25 C-46.01 24.67 -45.02 24.34 -44 24 C-42.72 22.08 -42.72 22.08 -41.62 19.75 C-39.52 15.73 -37.38 13 -34 10 C-32 13 -32 13 -32 16 C-30.02 15.34 -28.04 14.68 -26 14 C-26 15.32 -26 16.64 -26 18 C-24.68 18 -23.36 18 -22 18 C-22 18.66 -22 19.32 -22 20 C-20.35 19.67 -18.7 19.34 -17 19 C-17.11 19.66 -17.21 20.33 -17.32 21.01 C-18.14 26.62 -18.14 26.62 -16.75 32 C-14.38 34.71 -12.74 35.92 -9.12 36.31 C-5.57 35.96 -3.81 35.19 -1 33 C1.09 30.35 1 28.93 0.94 25.5 C0.27 21.94 0.27 21.94 -2.12 19.62 C-5.49 17.73 -8.18 17.35 -12 17 C-12.99 16.67 -13.98 16.34 -15 16 C-14.67 15.34 -14.34 14.68 -14 14 C-14.66 13.67 -15.32 13.34 -16 13 C-16 12.34 -16 11.68 -16 11 C-10.25 8 -10.25 8 -8 8 C-8 6.68 -8 5.36 -8 4 C-7.34 4 -6.68 4 -6 4 C-6 3.34 -6 2.68 -6 2 C-1.12 0 -1.12 0 0 0 Z " fill="#1C2B3C" transform="translate(80,38)"/>
<path d="M0 0 C6.93 3.24 13.54 3.09 21.07 3.02 C23.66 3 26.24 3 28.82 3.02 C29.95 3.01 31.08 3 32.25 2.99 C35.07 3.45 35.07 3.45 36.97 5.35 C38.07 7.45 38.07 7.45 37.95 9.58 C37.07 11.45 37.07 11.45 34.07 13.45 C30.94 13.87 30.94 13.87 27.39 14.08 C26.21 14.15 25.03 14.23 23.81 14.3 C22.91 14.35 22.01 14.4 21.07 14.45 C22.46 16.42 23.85 18.38 25.26 20.33 C25.65 20.88 26.04 21.44 26.44 22.01 C29 25.53 30.95 27.14 35.07 28.45 C37.07 30.45 37.07 30.45 37.26 32.83 C37.07 35.45 37.07 35.45 36.51 37.39 C35.92 39.53 35.92 39.53 36.54 41.98 C39.26 59.54 37.36 79.47 26.82 94.21 C16.35 107.67 5.51 116.03 -10.93 120.45 C-11.59 120.66 -12.26 120.87 -12.95 121.09 C-14.93 121.45 -14.93 121.45 -17.93 121.35 C-29.91 121.07 -37.31 126.43 -46.91 133.1 C-51 135.85 -54.62 137.88 -59.61 137.89 C-60.36 137.91 -61.11 137.93 -61.88 137.95 C-63.93 137.45 -63.93 137.45 -65.68 135.97 C-67.53 132.24 -67.25 128.81 -67.11 124.7 C-67.09 123.51 -67.09 123.51 -67.07 122.3 C-67.04 120.35 -66.98 118.4 -66.93 116.45 C-68.13 116.48 -68.13 116.48 -69.36 116.52 C-72.98 116.6 -76.61 116.65 -80.24 116.7 C-81.5 116.74 -82.76 116.77 -84.06 116.8 C-85.88 116.82 -85.88 116.82 -87.73 116.84 C-89.4 116.88 -89.4 116.88 -91.11 116.91 C-93.93 116.45 -93.93 116.45 -95.79 114.59 C-97.2 111.95 -97.38 110.41 -96.93 107.45 C-95.78 105.82 -95.78 105.82 -93.93 104.45 C-91.2 104.11 -91.2 104.11 -87.95 104.16 C-86.78 104.17 -85.62 104.18 -84.42 104.19 C-83.2 104.21 -81.99 104.24 -80.74 104.27 C-79.51 104.28 -78.29 104.29 -77.02 104.31 C-73.99 104.34 -70.96 104.39 -67.93 104.45 C-68.63 103.28 -68.63 103.28 -69.35 102.09 C-70.31 100.48 -71.25 98.86 -72.15 97.21 C-73.91 94.61 -75.23 93.12 -77.93 91.45 C-81.61 90.9 -85.27 91.08 -88.97 91.4 C-91.16 91.56 -91.16 91.56 -94.93 91.45 C-97.34 89.25 -97.84 88.12 -98.24 84.89 C-97.93 82.45 -97.93 82.45 -95.93 79.45 C-91.9 79.03 -87.98 79.32 -83.93 79.45 C-84.59 74.5 -85.25 69.55 -85.93 64.45 C-88.17 64.55 -90.42 64.65 -92.66 64.75 C-94.93 64.45 -94.93 64.45 -96.7 63.16 C-98.71 60.36 -98.23 57.78 -97.93 54.45 C-95.93 52.45 -95.93 52.45 -93.54 52.26 C-92.19 52.29 -92.19 52.29 -90.8 52.33 C-89.89 52.35 -88.98 52.36 -88.04 52.38 C-87.34 52.41 -86.65 52.43 -85.93 52.45 C-85.97 51.44 -86.01 50.43 -86.05 49.39 C-85.92 45.27 -85.19 42.33 -83.93 38.45 C-85.06 38.51 -85.06 38.51 -86.23 38.56 C-87.22 38.59 -88.21 38.61 -89.24 38.64 C-90.22 38.68 -91.21 38.71 -92.23 38.75 C-94.93 38.45 -94.93 38.45 -96.75 37.09 C-97.93 35.45 -97.93 35.45 -98.36 33.02 C-97.77 29.54 -96.74 28.57 -93.93 26.45 C-91.24 26.26 -88.78 26.23 -86.11 26.33 C-81.75 26.31 -78.74 26.16 -75.32 23.18 C-73.61 20.66 -72.27 18.17 -70.93 15.45 C-71.64 15.44 -72.35 15.42 -73.08 15.41 C-76.3 15.33 -79.52 15.24 -82.74 15.14 C-83.86 15.12 -84.98 15.1 -86.13 15.07 C-87.74 15.02 -87.74 15.02 -89.38 14.96 C-90.37 14.94 -91.36 14.91 -92.38 14.89 C-95.28 14.39 -96.22 13.81 -97.93 11.45 C-98.3 8.95 -98.3 8.95 -97.93 6.45 C-96.64 4.82 -96.64 4.82 -94.93 3.45 C-92.03 3.19 -89.34 3.11 -86.45 3.15 C-84.71 3.14 -82.96 3.14 -81.22 3.13 C-78.5 3.13 -75.78 3.14 -73.06 3.17 C-61.83 3.26 -52.79 2.46 -42.48 -2.16 C-30.06 -7.01 -11.72 -6.36 0 0 Z " fill="#48C2FD" transform="translate(278.92578125,230.546875)"/>
<path d="M0 0 C1.09 -0.01 2.17 -0.02 3.29 -0.03 C6.87 -0.07 10.46 -0.09 14.04 -0.1 C15.88 -0.11 15.88 -0.11 17.76 -0.12 C23.59 -0.16 29.41 -0.18 35.24 -0.19 C41.28 -0.21 47.31 -0.24 53.34 -0.3 C59.83 -0.37 66.32 -0.4 72.81 -0.4 C75.28 -0.41 77.75 -0.43 80.21 -0.46 C103.6 -0.74 103.6 -0.74 111.25 5.52 C111.87 6.12 112.49 6.72 113.12 7.34 C114.56 8.56 114.56 8.56 116.03 9.8 C117.09 10.89 117.09 10.89 118.18 12 C119.37 13.22 119.37 13.22 120.6 14.46 C121.39 15.29 122.18 16.11 123 16.96 C123.81 17.8 124.62 18.63 125.46 19.49 C127.69 21.76 129.91 24.05 132.12 26.34 C134.67 28.98 137.04 31.29 140.12 33.34 C140.12 34 140.12 34.66 140.12 35.34 C140.66 35.56 141.21 35.77 141.77 36 C144.91 37.79 147.25 40.21 149.75 42.78 C150.48 43.51 150.48 43.51 151.23 44.26 C157.27 50.37 158.23 54.63 158.27 63.03 C158.28 64.02 158.28 64.02 158.29 65.03 C158.3 67.24 158.31 69.44 158.31 71.65 C158.32 73.23 158.33 74.81 158.34 76.4 C158.36 81.6 158.38 86.79 158.39 91.99 C158.4 93.78 158.4 95.58 158.41 97.37 C158.43 104.84 158.45 112.31 158.46 119.78 C158.48 130.46 158.51 141.13 158.57 151.81 C158.61 159.33 158.63 166.85 158.63 174.37 C158.64 178.86 158.65 183.34 158.68 187.82 C158.71 192.05 158.72 196.28 158.7 200.5 C158.7 202.04 158.71 203.58 158.73 205.12 C158.86 217.38 157.36 230.13 148.43 239.34 C143.83 244.01 138.96 247.4 133.12 250.34 C132.49 250.7 131.86 251.06 131.21 251.43 C126.83 253.34 122.14 253.46 117.42 253.48 C115.75 253.49 115.75 253.49 114.04 253.5 C112.84 253.5 111.63 253.5 110.39 253.5 C109.11 253.5 107.82 253.51 106.5 253.51 C103 253.53 99.49 253.53 95.98 253.54 C93.79 253.54 91.6 253.55 89.4 253.55 C82.52 253.56 75.64 253.57 68.76 253.58 C60.84 253.58 52.93 253.6 45.01 253.63 C38.87 253.65 32.73 253.66 26.6 253.66 C22.94 253.66 19.28 253.67 15.63 253.69 C11.54 253.71 7.45 253.7 3.37 253.69 C1.57 253.71 1.57 253.71 -0.26 253.72 C-12.51 253.66 -22.81 250.58 -32.11 242.37 C-40.69 233.48 -45.12 221.05 -45.15 208.78 C-45.15 208.05 -45.16 207.32 -45.16 206.57 C-45.17 204.15 -45.17 201.73 -45.17 199.3 C-45.18 197.56 -45.18 195.81 -45.19 194.07 C-45.21 189.34 -45.21 184.61 -45.21 179.88 C-45.22 176.92 -45.22 173.96 -45.23 171 C-45.24 160.66 -45.25 150.33 -45.25 139.99 C-45.25 130.38 -45.27 120.76 -45.3 111.15 C-45.33 102.88 -45.34 94.61 -45.34 86.34 C-45.34 81.41 -45.34 76.48 -45.36 71.54 C-45.38 66.9 -45.38 62.26 -45.37 57.61 C-45.37 55.92 -45.37 54.22 -45.38 52.52 C-45.49 36.58 -42.25 23.03 -31.13 11.03 C-26.91 7.02 -22.25 4.51 -16.88 2.34 C-15.65 1.82 -15.65 1.82 -14.4 1.3 C-9.57 -0.02 -4.99 0.02 0 0 Z M-26.88 20.34 C-34.85 30.56 -34.18 43.12 -34.19 55.4 C-34.19 57.13 -34.2 58.85 -34.21 60.57 C-34.23 65.24 -34.24 69.9 -34.25 74.56 C-34.25 77.48 -34.26 80.4 -34.26 83.32 C-34.29 93.52 -34.3 103.72 -34.31 113.93 C-34.31 123.41 -34.34 132.89 -34.38 142.37 C-34.42 150.54 -34.43 158.7 -34.43 166.86 C-34.43 171.73 -34.44 176.59 -34.47 181.46 C-34.5 186.04 -34.5 190.62 -34.48 195.2 C-34.48 196.87 -34.49 198.54 -34.5 200.21 C-34.61 212.36 -33.52 224.64 -24.62 233.91 C-18.47 238.95 -12.37 241.45 -4.46 241.49 C-3.36 241.49 -2.26 241.5 -1.13 241.51 C0.08 241.51 1.28 241.51 2.52 241.52 C3.79 241.52 5.06 241.53 6.37 241.54 C10.58 241.56 14.79 241.57 19 241.58 C20.45 241.58 21.91 241.58 23.36 241.59 C30.19 241.61 37.03 241.62 43.86 241.63 C51.72 241.64 59.59 241.67 67.46 241.71 C73.55 241.74 79.64 241.75 85.74 241.76 C89.37 241.76 93 241.77 96.63 241.79 C100.7 241.82 104.76 241.82 108.82 241.81 C110.01 241.82 111.19 241.83 112.42 241.85 C123.37 241.78 132.23 239.21 140.24 231.56 C143.12 228.16 144.73 224.54 146.12 220.34 C146.45 219.35 146.78 218.36 147.12 217.34 C147.21 215.31 147.24 213.28 147.24 211.24 C147.24 209.97 147.24 208.7 147.24 207.38 C147.24 205.97 147.24 204.55 147.23 203.14 C147.23 201.65 147.23 200.16 147.23 198.67 C147.23 194.63 147.23 190.59 147.22 186.54 C147.22 182.32 147.21 178.09 147.21 173.87 C147.21 165.87 147.2 157.87 147.19 149.87 C147.18 140.76 147.18 131.65 147.17 122.55 C147.16 103.81 147.14 85.07 147.12 66.34 C146 66.33 144.88 66.32 143.73 66.31 C139.56 66.27 135.39 66.2 131.21 66.13 C129.41 66.1 127.61 66.08 125.81 66.07 C123.21 66.05 120.62 66 118.02 65.95 C117.22 65.95 116.42 65.95 115.59 65.94 C109.36 65.78 105.99 63.83 101.25 59.72 C94.83 51.69 96.23 41.01 96.25 31.28 C96.23 29.34 96.21 27.41 96.18 25.47 C96.13 20.76 96.12 16.05 96.12 11.34 C82.72 11.29 69.31 11.26 55.91 11.23 C49.68 11.22 43.46 11.21 37.23 11.19 C31.22 11.17 25.21 11.15 19.2 11.15 C16.91 11.14 14.62 11.14 12.33 11.13 C9.12 11.11 5.9 11.11 2.69 11.11 C1.75 11.1 0.81 11.1 -0.16 11.09 C-10.77 11.12 -18.89 13 -26.88 20.34 Z " fill="#102239" transform="translate(190.879638671875,148.661865234375)"/>
<path d="M0 0 C1.02 -0 2.03 -0 3.08 -0 C6.43 0 9.77 0.01 13.12 0.02 C15.45 0.02 17.77 0.02 20.1 0.02 C26.21 0.02 32.33 0.03 38.44 0.04 C44.68 0.06 50.92 0.06 57.16 0.06 C69.4 0.08 81.64 0.09 93.89 0.11 C93.88 1.31 93.88 2.5 93.88 3.73 C93.89 8.2 93.93 12.67 93.98 17.14 C94 19.06 94.01 20.99 94.01 22.92 C93.55 36.51 93.55 36.51 99.02 48.49 C113.39 60.95 118.36 54.42 144.89 55.11 C144.89 104.94 144.89 154.77 144.89 206.11 C144.23 206.44 143.57 206.77 142.89 207.11 C142.89 190.28 142.89 173.45 142.89 156.11 C142.23 156.11 141.57 156.11 140.89 156.11 C140.56 152.48 140.23 148.85 139.89 145.11 C139.47 146.25 139.06 147.38 138.64 148.55 C138.06 149.73 137.48 150.9 136.89 152.11 C135.57 152.44 134.25 152.77 132.89 153.11 C132.56 150.14 132.23 147.17 131.89 144.11 C130.24 144.11 128.59 144.11 126.89 144.11 C125.72 140.62 126.14 138.6 126.73 135.05 C127.03 132.9 127.03 132.9 125.89 130.11 C125.56 132.09 125.23 134.07 124.89 136.11 C124.56 136.11 124.23 136.11 123.89 136.11 C123.84 135.11 123.79 134.11 123.74 133.07 C123.31 125.11 122.6 117.36 121.19 109.49 C121.09 108.71 120.99 107.92 120.89 107.11 C121.22 106.78 121.55 106.45 121.89 106.11 C122.14 103.66 122.14 103.66 121.89 101.11 C120.03 98.97 120.03 98.97 117.49 98.26 C114.39 96.9 113.2 95.44 111.2 92.74 C110.62 91.97 110.04 91.2 109.44 90.4 C108.05 88.36 106.92 86.35 105.89 84.11 C106.86 84.06 107.84 84.02 108.84 83.97 C110.75 83.85 110.75 83.85 112.7 83.74 C114.59 83.63 114.59 83.63 116.53 83.53 C120.01 83.35 120.01 83.35 122.89 81.11 C122.51 77.82 122.51 77.82 120.89 75.11 C118.81 74.99 116.73 74.93 114.66 74.9 C113.38 74.87 112.1 74.85 110.78 74.82 C108.75 74.78 106.71 74.74 104.67 74.71 C102.71 74.68 100.74 74.64 98.78 74.59 C97.6 74.57 96.43 74.55 95.21 74.53 C91.49 74.06 89.05 73.11 85.89 71.11 C85.16 69.13 84.49 67.13 83.89 65.11 C81.88 63.69 81.88 63.69 79.89 63.11 C79.56 63.77 79.23 64.43 78.89 65.11 C78.89 64.45 78.89 63.79 78.89 63.11 C77.4 62.62 77.4 62.62 75.89 62.11 C76.88 61.78 77.87 61.45 78.89 61.11 C78.91 59.66 78.93 58.2 78.95 56.74 C78.96 55.93 78.97 55.11 78.98 54.28 C79.03 52.06 79.03 52.06 77.89 50.11 C48.85 49.78 19.81 49.45 -10.11 49.11 C-9.45 48.12 -8.79 47.13 -8.11 46.11 C-7.45 46.11 -6.79 46.11 -6.11 46.11 C-6.11 45.45 -6.11 44.79 -6.11 44.11 C-7.76 45.1 -9.41 46.09 -11.11 47.11 C-9.36 42.24 -9.36 42.24 -7.11 41.11 C-7.11 40.45 -7.11 39.79 -7.11 39.11 C-8.6 38.62 -8.6 38.62 -10.11 38.11 C-10.11 37.78 -10.11 37.45 -10.11 37.11 C17.61 37.11 45.33 37.11 73.89 37.11 C73.89 36.45 73.89 35.79 73.89 35.11 C74.55 34.78 75.21 34.45 75.89 34.11 C76.18 30.63 76.18 30.63 74.89 27.47 C71.71 25.32 68.32 25.71 64.61 25.74 C63.76 25.74 62.92 25.73 62.05 25.73 C59.25 25.72 56.46 25.74 53.67 25.75 C51.73 25.75 49.79 25.75 47.85 25.75 C43.78 25.75 39.72 25.76 35.65 25.78 C30.44 25.8 25.22 25.8 20.01 25.79 C16 25.79 12 25.8 7.99 25.81 C6.07 25.81 4.15 25.81 2.22 25.81 C-0.46 25.81 -3.15 25.82 -5.84 25.84 C-6.63 25.84 -7.43 25.83 -8.25 25.83 C-12.07 25.87 -13.86 25.94 -17.11 28.11 C-17.11 26.79 -17.11 25.47 -17.11 24.11 C-16.45 24.11 -15.79 24.11 -15.11 24.11 C-15.11 23.45 -15.11 22.79 -15.11 22.11 C-16.1 21.78 -17.09 21.45 -18.11 21.11 C-17.78 19.46 -17.45 17.81 -17.11 16.11 C-18.17 16.3 -19.22 16.48 -20.3 16.68 C-23.69 17.06 -25.88 17 -29.11 16.11 C-26.36 11.24 -26.36 11.24 -24.11 10.11 C-23.45 10.44 -22.79 10.77 -22.11 11.11 C-22.11 8.8 -22.11 6.49 -22.11 4.11 C-14.51 0.69 -8.31 -0.03 0 0 Z " fill="#F7FAFB" transform="translate(193.114501953125,159.886474609375)"/>
<path d="M0 0 C0.33 0 0.66 0 1 0 C0.67 9.9 0.34 19.8 0 30 C143.22 30 286.44 30 434 30 C434 21.42 434 12.84 434 4 C434.33 4 434.66 4 435 4 C435.02 46.21 435.04 88.42 435.05 130.63 C435.05 135.61 435.05 140.59 435.05 145.57 C435.06 147.06 435.06 147.06 435.06 148.58 C435.06 164.64 435.07 180.71 435.08 196.77 C435.09 213.25 435.09 229.73 435.09 246.21 C435.1 256.38 435.1 266.56 435.11 276.73 C435.11 283.7 435.11 290.67 435.11 297.64 C435.11 301.67 435.11 305.69 435.12 309.72 C435.12 313.4 435.12 317.08 435.12 320.76 C435.12 322.73 435.12 324.7 435.13 326.67 C435.13 327.83 435.13 329 435.12 330.2 C435.12 331.21 435.12 332.21 435.12 333.25 C435 335.93 434.6 338.39 434 341 C433.67 341 433.34 341 433 341 C433.33 238.7 433.66 136.4 434 31 C290.78 31 147.56 31 0 31 C0.33 128.35 0.66 225.7 1 326 C1.33 293 1.66 260 2 226 C2.99 226 3.98 226 5 226 C5.01 226.58 5.02 227.16 5.03 227.75 C5.14 233.85 5.26 239.96 5.37 246.06 C5.42 248.32 5.46 250.59 5.5 252.86 C5.71 264.5 5.92 276.1 6.9 287.71 C7.01 291.26 6.6 294.51 6 298 C6.66 298.33 7.32 298.66 8 299 C7.51 299.95 7.01 300.9 6.5 301.88 C4.47 306.52 4.73 311.02 5 316 C5.66 316 6.32 316 7 316 C7 316.66 7 317.32 7 318 C7.66 318 8.32 318 9 318 C9.27 323.49 9.37 325.65 6 330 C5.74 333.74 5.81 336.44 7 340 C7.66 340 8.32 340 9 340 C9 338.35 9 336.7 9 335 C9.66 334.67 10.32 334.34 11 334 C12.26 336.91 13 338.8 13 342 C15.64 342 18.28 342 21 342 C22.12 348.62 22.12 348.62 21 352 C20.01 351.67 19.02 351.34 18 351 C18 351.66 18 352.32 18 353 C18.99 353.66 19.98 354.32 21 355 C21.7 357.66 21.78 360.24 22 363 C22.97 362.81 23.94 362.63 24.94 362.44 C25.95 362.29 26.96 362.15 28 362 C28.33 362.33 28.66 362.66 29 363 C30.35 363.23 31.7 363.41 33.06 363.56 C34.36 363.71 35.66 363.85 37 364 C37.33 365.65 37.66 367.3 38 369 C42.29 369.33 46.58 369.66 51 370 C51 370.66 51 371.32 51 372 C51.66 372 52.32 372 53 372 C53 375.3 53 378.6 53 382 C51.68 382 50.36 382 49 382 C49 382.66 49 383.32 49 384 C56.75 384.85 64.39 385.13 72.19 385.06 C73.23 385.06 74.28 385.05 75.36 385.05 C77.91 385.04 80.45 385.02 83 385 C83.66 383.35 84.32 381.7 85 380 C90.28 380 95.56 380 101 380 C101.33 381.65 101.66 383.3 102 385 C106.62 385 111.24 385 116 385 C116.33 382.69 116.66 380.38 117 378 C118.32 378 119.64 378 121 378 C121 378.66 121 379.32 121 380 C121.66 380 122.32 380 123 380 C123 380.66 123 381.32 123 382 C123.66 382 124.32 382 125 382 C125 383.65 125 385.3 125 387 C132.9 387.03 140.8 387.04 148.71 387.05 C151.39 387.06 154.08 387.07 156.77 387.08 C160.63 387.09 164.5 387.09 168.36 387.1 C169.56 387.1 170.77 387.11 172.01 387.11 C173.13 387.11 174.25 387.11 175.41 387.11 C176.39 387.12 177.38 387.12 178.39 387.12 C180.76 387.01 182.72 386.59 185 386 C185.93 386.25 185.93 386.25 186.88 386.5 C189.76 387.18 191.96 386.6 194.86 386.04 C202.11 384.83 208.99 384.97 216.31 385.38 C217.54 385.43 218.77 385.49 220.04 385.55 C223.03 385.69 226.01 385.84 229 386 C229 386.33 229 386.66 229 387 C230.23 387.06 231.46 387.12 232.73 387.18 C234.36 387.27 235.99 387.35 237.62 387.44 C238.84 387.5 238.84 387.5 240.07 387.56 C244.45 387.79 248.69 388.17 253 389 C253 389.33 253 389.66 253 390 C256.99 390.04 260.97 390.07 264.96 390.07 C265.63 390.07 266.31 390.07 267 390.06 C269.07 390 271.07 389.78 273.12 389.5 C279.07 388.73 285.01 388.92 291 389 C291 389.33 291 389.66 291 390 C306.51 391.63 321.91 392.22 337.5 392.25 C338.33 392.25 339.17 392.26 340.03 392.27 C359.09 392.36 378.29 392.11 394.75 381.37 C399.91 378.23 403.03 377.83 409 379 C409 377.35 409 375.7 409 374 C411.31 373.67 413.62 373.34 416 373 C415.67 372.01 415.34 371.02 415 370 C415.99 369.67 416.98 369.34 418 369 C418.33 367.35 418.66 365.7 419 364 C419.99 363.67 420.98 363.34 422 363 C422 362.01 422 361.02 422 360 C422.66 360 423.32 360 424 360 C424.33 358.68 424.66 357.36 425 356 C425.66 356 426.32 356 427 356 C428.64 354.04 428.64 354.04 430 352 C428.67 364.22 419.08 376.15 409.86 383.77 C408 385 408 385 406 385 C406 385.66 406 386.32 406 387 C388.04 396.5 372.8 400.16 352.42 400.13 C351.21 400.14 350 400.14 348.76 400.14 C345.44 400.15 342.12 400.15 338.8 400.15 C335.21 400.15 331.62 400.15 328.02 400.16 C321 400.16 313.97 400.17 306.95 400.17 C301.23 400.17 295.51 400.17 289.8 400.17 C273.57 400.18 257.33 400.19 241.1 400.19 C240.23 400.19 239.35 400.19 238.45 400.19 C237.58 400.19 236.7 400.19 235.8 400.19 C221.63 400.18 207.46 400.19 193.29 400.21 C178.71 400.22 164.14 400.23 149.56 400.23 C141.38 400.23 133.21 400.23 125.04 400.24 C118.08 400.25 111.12 400.25 104.16 400.25 C100.62 400.24 97.07 400.24 93.53 400.25 C66.43 400.31 41.37 399.5 20.75 379.44 C14.34 372.96 9.99 366.18 6 358 C5.58 357.24 5.17 356.47 4.74 355.68 C-3.33 339.88 -1.42 320.58 -1.36 303.39 C-1.35 299.37 -1.36 295.35 -1.36 291.33 C-1.37 283.49 -1.36 275.64 -1.34 267.79 C-1.32 258.65 -1.32 249.51 -1.32 240.37 C-1.32 224.06 -1.31 207.76 -1.28 191.45 C-1.26 175.63 -1.24 159.81 -1.24 143.99 C-1.24 143.01 -1.24 142.03 -1.24 141.03 C-1.24 139.06 -1.24 137.1 -1.24 135.13 C-1.24 133.67 -1.24 133.67 -1.24 132.19 C-1.24 130.74 -1.24 130.74 -1.24 129.26 C-1.23 114.17 -1.22 99.08 -1.21 83.98 C-1.21 78.52 -1.2 73.05 -1.2 67.58 C-1.19 58.92 -1.19 50.26 -1.17 41.59 C-1.17 37.63 -1.16 33.68 -1.16 29.72 C-1.16 26.1 -1.15 22.48 -1.14 18.86 C-1.14 16.92 -1.14 14.99 -1.14 13.05 C-1.14 11.91 -1.14 10.76 -1.13 9.59 C-1.13 8.6 -1.13 7.61 -1.13 6.59 C-1.01 4.24 -0.67 2.25 0 0 Z " fill="#BCC8D3" transform="translate(27,78)"/>
<path d="M0 0 C6.93 3.24 13.54 3.09 21.07 3.02 C23.66 3 26.24 3 28.82 3.02 C29.95 3.01 31.08 3 32.25 2.99 C35.07 3.45 35.07 3.45 36.97 5.35 C38.07 7.45 38.07 7.45 37.95 9.58 C37.07 11.45 37.07 11.45 34.07 13.45 C30.94 13.87 30.94 13.87 27.39 14.08 C26.21 14.15 25.03 14.23 23.81 14.3 C22.91 14.35 22.01 14.4 21.07 14.45 C22.46 16.42 23.85 18.38 25.26 20.33 C25.65 20.88 26.04 21.44 26.44 22.01 C29 25.53 30.95 27.14 35.07 28.45 C37.07 30.45 37.07 30.45 37.26 32.83 C37.07 35.45 37.07 35.45 36.51 37.39 C35.92 39.53 35.92 39.53 36.54 41.98 C39.26 59.54 37.36 79.47 26.82 94.21 C16.35 107.67 5.51 116.03 -10.93 120.45 C-11.59 120.66 -12.26 120.87 -12.95 121.09 C-14.93 121.45 -14.93 121.45 -17.93 121.35 C-29.91 121.07 -37.31 126.43 -46.91 133.1 C-51 135.85 -54.62 137.88 -59.61 137.89 C-60.36 137.91 -61.11 137.93 -61.88 137.95 C-63.93 137.45 -63.93 137.45 -65.68 135.97 C-67.53 132.24 -67.25 128.81 -67.11 124.7 C-67.09 123.51 -67.09 123.51 -67.07 122.3 C-67.04 120.35 -66.98 118.4 -66.93 116.45 C-68.13 116.48 -68.13 116.48 -69.36 116.52 C-72.98 116.6 -76.61 116.65 -80.24 116.7 C-81.5 116.74 -82.76 116.77 -84.06 116.8 C-85.88 116.82 -85.88 116.82 -87.73 116.84 C-89.4 116.88 -89.4 116.88 -91.11 116.91 C-93.93 116.45 -93.93 116.45 -95.79 114.59 C-97.2 111.95 -97.38 110.41 -96.93 107.45 C-95.78 105.82 -95.78 105.82 -93.93 104.45 C-91.2 104.11 -91.2 104.11 -87.95 104.16 C-86.78 104.17 -85.62 104.18 -84.42 104.19 C-83.2 104.21 -81.99 104.24 -80.74 104.27 C-79.51 104.28 -78.29 104.29 -77.02 104.31 C-73.99 104.34 -70.96 104.39 -67.93 104.45 C-68.63 103.28 -68.63 103.28 -69.35 102.09 C-70.31 100.48 -71.25 98.86 -72.15 97.21 C-73.91 94.61 -75.23 93.12 -77.93 91.45 C-81.61 90.9 -85.27 91.08 -88.97 91.4 C-91.16 91.56 -91.16 91.56 -94.93 91.45 C-97.34 89.25 -97.84 88.12 -98.24 84.89 C-97.93 82.45 -97.93 82.45 -95.93 79.45 C-91.9 79.03 -87.98 79.32 -83.93 79.45 C-84.59 74.5 -85.25 69.55 -85.93 64.45 C-88.17 64.55 -90.42 64.65 -92.66 64.75 C-94.93 64.45 -94.93 64.45 -96.7 63.16 C-98.71 60.36 -98.23 57.78 -97.93 54.45 C-95.93 52.45 -95.93 52.45 -93.54 52.26 C-92.19 52.29 -92.19 52.29 -90.8 52.33 C-89.89 52.35 -88.98 52.36 -88.04 52.38 C-87.34 52.41 -86.65 52.43 -85.93 52.45 C-85.97 51.44 -86.01 50.43 -86.05 49.39 C-85.92 45.27 -85.19 42.33 -83.93 38.45 C-85.06 38.51 -85.06 38.51 -86.23 38.56 C-87.22 38.59 -88.21 38.61 -89.24 38.64 C-90.22 38.68 -91.21 38.71 -92.23 38.75 C-94.93 38.45 -94.93 38.45 -96.75 37.09 C-97.93 35.45 -97.93 35.45 -98.36 33.02 C-97.77 29.54 -96.74 28.57 -93.93 26.45 C-91.24 26.26 -88.78 26.23 -86.11 26.33 C-81.75 26.31 -78.74 26.16 -75.32 23.18 C-73.61 20.66 -72.27 18.17 -70.93 15.45 C-71.64 15.44 -72.35 15.42 -73.08 15.41 C-76.3 15.33 -79.52 15.24 -82.74 15.14 C-83.86 15.12 -84.98 15.1 -86.13 15.07 C-87.74 15.02 -87.74 15.02 -89.38 14.96 C-90.37 14.94 -91.36 14.91 -92.38 14.89 C-95.28 14.39 -96.22 13.81 -97.93 11.45 C-98.3 8.95 -98.3 8.95 -97.93 6.45 C-96.64 4.82 -96.64 4.82 -94.93 3.45 C-92.03 3.19 -89.34 3.11 -86.45 3.15 C-84.71 3.14 -82.96 3.14 -81.22 3.13 C-78.5 3.13 -75.78 3.14 -73.06 3.17 C-61.83 3.26 -52.79 2.46 -42.48 -2.16 C-30.06 -7.01 -11.72 -6.36 0 0 Z M-62.89 23.02 C-74.28 36.6 -76.37 51.26 -74.93 68.45 C-73.22 78.54 -67.62 88.62 -59.8 95.25 C-58.02 96.63 -58.02 96.63 -55.93 96.45 C-55.93 105.69 -55.93 114.93 -55.93 124.45 C-51.58 122.71 -48 120.74 -44.18 118.14 C-43.59 117.76 -43 117.38 -42.39 116.99 C-39.58 115.08 -38.08 113.95 -37.04 110.66 C-37 109.93 -36.96 109.2 -36.93 108.45 C-35.67 108.93 -35.67 108.93 -34.39 109.42 C-21.95 113.13 -10.18 110.02 1.07 104.45 C11.7 98.11 21.21 87.51 24.63 75.49 C26.03 69.82 26.43 64.4 26.39 58.58 C26.38 57.7 26.38 56.82 26.37 55.92 C26.09 41.15 20.6 30.51 10.56 19.78 C4.01 13.65 -3.31 9.79 -11.93 7.45 C-12.92 7.12 -13.91 6.79 -14.93 6.45 C-33.77 5.26 -49.47 8.95 -62.89 23.02 Z " fill="#11253C" transform="translate(278.92578125,230.546875)"/>
<path d="M0 0 C0.99 0.33 1.98 0.66 3 1 C2.67 2.65 2.34 4.3 2 6 C1.07 6.12 1.07 6.12 0.12 6.25 C-2.53 6.91 -2.53 6.91 -4 11 C-0.37 11 3.26 11 7 11 C7 12.65 7 14.3 7 16 C7.66 16.33 8.32 16.66 9 17 C8.67 18.65 8.34 20.3 8 22 C8.99 21.34 9.98 20.68 11 20 C13.76 19.8 16.41 19.71 19.17 19.71 C20.42 19.7 20.42 19.7 21.7 19.69 C24.45 19.67 27.21 19.67 29.96 19.66 C31.88 19.66 33.79 19.65 35.71 19.64 C39.72 19.63 43.74 19.63 47.75 19.63 C52.9 19.63 58.04 19.6 63.19 19.57 C67.14 19.55 71.1 19.54 75.05 19.54 C76.95 19.54 78.84 19.53 80.74 19.52 C83.39 19.5 86.05 19.5 88.7 19.51 C89.48 19.5 90.27 19.49 91.08 19.48 C94.62 19.52 96.62 19.72 99.5 21.86 C101.31 24.44 101.34 25.91 101 29 C99.51 29.5 99.51 29.5 98 30 C98 30.66 98 31.32 98 32 C70.61 32.33 43.22 32.66 15 33 C15.99 33.99 16.98 34.98 18 36 C16.51 36.5 16.51 36.5 15 37 C15 37.99 15 38.98 15 40 C16.49 39.5 16.49 39.5 18 39 C18 39.66 18 40.32 18 41 C17.01 41.66 16.02 42.32 15 43 C16.09 43.01 17.17 43.01 18.29 43.02 C28.5 43.07 38.71 43.15 48.93 43.24 C54.18 43.28 59.43 43.32 64.68 43.35 C69.74 43.37 74.81 43.41 79.87 43.46 C81.81 43.48 83.74 43.49 85.68 43.5 C88.38 43.51 91.08 43.54 93.79 43.57 C94.59 43.57 95.4 43.56 96.23 43.56 C98.46 43.6 98.46 43.6 102 44 C104.12 47.18 104.23 47.93 104.12 51.56 C104.11 52.35 104.09 53.13 104.07 53.94 C104.05 54.62 104.02 55.3 104 56 C104 56.66 104 57.32 104 58 C105.98 58.33 107.96 58.66 110 59 C109.01 59.5 109.01 59.5 108 60 C108.99 62.47 108.99 62.47 110 65 C109.28 64.87 108.55 64.73 107.8 64.6 C106.84 64.42 105.87 64.24 104.88 64.06 C103.92 63.89 102.97 63.71 101.99 63.54 C101 63.36 100.02 63.18 99 63 C98.03 62.82 97.05 62.63 96.05 62.45 C84.54 60.77 73.01 61.66 62.45 66.54 C53.29 70.12 44.02 69.71 34.31 69.69 C31.57 69.7 28.82 69.71 26.08 69.74 C24.38 69.75 22.69 69.76 20.99 69.75 C16.52 69.58 16.52 69.58 13 72 C12.67 74.5 12.67 74.5 13 77 C15.64 79.64 16.98 79.3 20.66 79.41 C22.35 79.47 22.35 79.47 24.06 79.53 C25.24 79.56 26.41 79.59 27.62 79.62 C28.81 79.66 29.99 79.7 31.21 79.74 C34.14 79.84 37.07 79.92 40 80 C38.86 81.81 37.71 83.63 36.56 85.44 C35.61 86.95 35.61 86.95 34.63 88.5 C33 91 33 91 32 92 C28.63 92.2 25.27 92.35 21.9 92.43 C17.71 92.58 17.71 92.58 14.01 94.38 C12.57 96.69 12.66 98.33 13 101 C15.59 103.59 17.03 103.37 20.62 103.62 C22.4 103.75 24.17 103.87 26 104 C25.34 108.62 24.68 113.24 24 118 C22.41 118.12 20.82 118.25 19.19 118.38 C15.51 118.66 14.16 118.89 11 121 C11 120.01 11 119.02 11 118 C10.34 118 9.68 118 9 118 C9 117.34 9 116.68 9 116 C8.34 116 7.68 116 7 116 C6.11 112.97 5.89 110.31 5.94 107.16 C5.95 106.24 5.95 105.32 5.96 104.38 C5.99 102.46 6.01 100.54 6.04 98.62 C6.05 97.7 6.05 96.79 6.06 95.84 C6.07 95.01 6.09 94.18 6.1 93.32 C6.09 90.99 6.09 90.99 5.41 88.81 C5.27 88.21 5.14 87.61 5 87 C6.44 85.25 6.44 85.25 8 84 C6.51 83.5 6.51 83.5 5 83 C5 81.02 5 79.04 5 77 C4.34 77 3.68 77 3 77 C3 78.32 3 79.64 3 81 C1.68 81 0.36 81 -1 81 C-1 80.34 -1 79.68 -1 79 C-1.66 79 -2.32 79 -3 79 C-2.81 79.68 -2.63 80.36 -2.44 81.06 C-1.91 84.57 -2.39 87.52 -3 91 C-5.47 91.5 -5.47 91.5 -8 92 C-8.33 94.31 -8.66 96.62 -9 99 C-9.33 99 -9.66 99 -10 99 C-10.25 94.48 -10.2 91.14 -8.5 86.94 C-6.58 81.42 -6.66 76.22 -6.81 70.44 C-6.83 69.43 -6.84 68.42 -6.85 67.38 C-6.89 64.92 -6.94 62.46 -7 60 C-7.99 60 -8.98 60 -10 60 C-10 67.92 -10 75.84 -10 84 C-10.33 84 -10.66 84 -11 84 C-11.14 77.9 -11.29 71.81 -11.43 65.71 C-11.48 63.64 -11.52 61.57 -11.57 59.51 C-12.63 14.96 -12.63 14.96 -5 4 C-2.38 1.38 -2.38 1.38 0 0 Z " fill="#F4F8FA" transform="translate(169,165)"/>
<path d="M0 0 C11.57 5.81 20.64 17.41 29.51 26.56 C31.6 28.68 33.51 30.34 36 32 C36 32.66 36 33.32 36 34 C36.54 34.22 37.09 34.44 37.65 34.66 C40.79 36.45 43.13 38.87 45.62 41.44 C46.36 42.17 46.36 42.17 47.11 42.92 C53.15 49.03 54.11 53.29 54.15 61.7 C54.16 62.69 54.16 62.69 54.17 63.7 C54.18 65.9 54.19 68.1 54.19 70.31 C54.2 71.89 54.21 73.48 54.22 75.06 C54.24 80.26 54.26 85.45 54.27 90.65 C54.28 92.45 54.28 94.24 54.29 96.03 C54.31 103.5 54.33 110.97 54.34 118.44 C54.36 129.12 54.39 139.79 54.45 150.47 C54.49 157.99 54.51 165.51 54.51 173.03 C54.51 177.52 54.53 182 54.56 186.49 C54.59 190.71 54.6 194.94 54.58 199.16 C54.58 200.71 54.59 202.25 54.61 203.79 C54.74 216.04 53.24 228.79 44.31 238 C39.71 242.67 34.84 246.06 29 249 C28.37 249.36 27.74 249.72 27.09 250.09 C22.68 252.01 17.98 252.12 13.23 252.12 C11.54 252.12 11.54 252.12 9.81 252.12 C8.59 252.12 7.37 252.12 6.11 252.11 C4.16 252.11 4.16 252.11 2.18 252.11 C-1.37 252.11 -4.92 252.11 -8.46 252.1 C-12.18 252.1 -15.89 252.09 -19.6 252.09 C-26.62 252.09 -33.65 252.08 -40.67 252.07 C-48.67 252.06 -56.66 252.06 -64.66 252.05 C-81.11 252.04 -97.55 252.02 -114 252 C-114.33 251.34 -114.66 250.68 -115 250 C-71.44 250 -27.88 250 17 250 C17 249.01 17 248.02 17 247 C16.39 247.06 15.77 247.12 15.14 247.18 C14.33 247.22 13.52 247.27 12.69 247.31 C11.49 247.4 11.49 247.4 10.26 247.49 C9.52 247.33 8.77 247.17 8 247 C7.68 246.18 7.36 245.36 7.03 244.51 C5.3 241.84 5.3 241.84 2.93 241.52 C0.04 241.34 -2.82 241.32 -5.71 241.34 C-7.37 241.32 -7.37 241.32 -9.05 241.31 C-12.71 241.28 -16.36 241.29 -20.01 241.29 C-22.54 241.28 -25.07 241.26 -27.6 241.25 C-33.58 241.21 -39.56 241.2 -45.54 241.19 C-52.35 241.19 -59.16 241.16 -65.97 241.12 C-79.98 241.05 -93.99 241.01 -108 241 C-108 240.67 -108 240.34 -108 240 C-107.36 240 -106.72 240 -106.06 240 C-90.47 239.96 -74.88 239.9 -59.28 239.82 C-51.74 239.78 -44.2 239.74 -36.66 239.73 C-30.09 239.72 -23.51 239.69 -16.93 239.65 C-13.45 239.62 -9.98 239.61 -6.5 239.61 C-2.6 239.61 1.29 239.58 5.18 239.55 C6.32 239.55 7.46 239.56 8.64 239.56 C18.82 239.43 27.8 237.16 35.34 230 C40.09 224.26 42.12 217.23 42.16 209.91 C42.17 208.63 42.18 207.36 42.19 206.04 C42.19 204.63 42.2 203.21 42.21 201.8 C42.21 200.31 42.22 198.82 42.24 197.33 C42.26 193.29 42.28 189.25 42.3 185.2 C42.33 180.98 42.35 176.76 42.38 172.53 C42.43 164.53 42.47 156.53 42.52 148.53 C42.57 139.42 42.62 130.32 42.68 121.21 C42.79 102.47 42.9 83.74 43 65 C41.32 65.03 41.32 65.03 39.61 65.06 C35.44 65.14 31.27 65.18 27.09 65.22 C25.29 65.24 23.49 65.27 21.69 65.3 C19.09 65.35 16.5 65.37 13.9 65.39 C12.7 65.42 12.7 65.42 11.47 65.45 C6.16 65.46 3.23 64.48 -1 61 C-2.86 58.93 -2.86 58.93 -4.31 56.88 C-5.05 55.85 -5.05 55.85 -5.8 54.8 C-8.27 51.08 -8.12 48.5 -8.1 44.02 C-8.1 43.34 -8.09 42.65 -8.09 41.95 C-8.09 39.76 -8.08 37.57 -8.06 35.38 C-8.06 33.89 -8.05 32.41 -8.05 30.92 C-8.04 27.28 -8.02 23.64 -8 20 C-7.34 20 -6.68 20 -6 20 C-6.5 19.01 -6.5 19.01 -7 18 C-7.59 10.73 -7.59 10.73 -5 7.5 C-4.34 7 -3.68 6.51 -3 6 C-5.16 6 -6.92 6.45 -9 7 C-8.4 4.98 -7.73 2.98 -7 1 C-4.43 -0.29 -2.86 -0.26 0 0 Z " fill="#16263B" transform="translate(295,150)"/>
<path d="M0 0 C5.78 -0.1 9.37 0.92 14.35 3.63 C15.05 3.99 15.74 4.36 16.46 4.74 C28.94 11.47 39.69 21.42 46.35 34.07 C45.86 35.06 45.86 35.06 45.35 36.07 C43.29 36.69 43.29 36.69 41.35 37.07 C41.35 36.08 41.35 35.09 41.35 34.07 C38.65 33.06 37.52 33.01 34.73 33.94 C33.26 34.64 31.8 35.34 30.35 36.07 C28.33 35.46 26.33 34.8 24.35 34.07 C25.01 33.08 25.67 32.09 26.35 31.07 C27.01 31.07 27.67 31.07 28.35 31.07 C28.35 30.41 28.35 29.75 28.35 29.07 C29.01 29.07 29.67 29.07 30.35 29.07 C29.86 25.11 29.86 25.11 29.35 21.07 C28.03 20.74 26.71 20.41 25.35 20.07 C25.25 21.16 25.15 22.25 25.04 23.38 C24.34 27.13 24.04 27.73 21.35 30.07 C21.33 29.39 21.3 28.72 21.28 28.02 C20.94 22.47 20.94 22.47 18.79 17.44 C15.19 15.41 12.45 15.79 8.35 16.07 C7.86 17.55 7.86 17.55 7.35 19.07 C5.87 19.56 5.87 19.56 4.35 20.07 C6.99 20.4 9.63 20.73 12.35 21.07 C12.85 22.55 12.85 22.55 13.35 24.07 C14.14 24.69 14.92 25.3 15.73 25.94 C19.96 29.37 21.45 32.43 22.23 37.75 C22.73 44.6 20.96 50.31 17.54 56.19 C15.35 58.07 15.35 58.07 12.1 58.38 C11.2 58.28 10.29 58.17 9.35 58.07 C9.35 58.73 9.35 59.39 9.35 60.07 C1.83 60.51 -3.55 60.79 -9.65 56.07 C-12.51 53.4 -14.52 51.23 -14.96 47.19 C-14.86 46.49 -14.75 45.79 -14.65 45.07 C-15.31 45.07 -15.97 45.07 -16.65 45.07 C-16.7 43.34 -16.74 41.61 -16.77 39.88 C-16.79 38.92 -16.82 37.95 -16.84 36.96 C-16.64 33.94 -15.91 31.8 -14.65 29.07 C-13.66 29.07 -12.67 29.07 -11.65 29.07 C-11.65 27.42 -11.65 25.77 -11.65 24.07 C-12.95 24.19 -14.24 24.31 -15.58 24.44 C-16.68 24.55 -16.68 24.55 -17.8 24.65 C-18.41 24.79 -19.02 24.93 -19.65 25.07 C-19.98 25.73 -20.31 26.39 -20.65 27.07 C-21.97 26.74 -23.29 26.41 -24.65 26.07 C-24.65 27.06 -24.65 28.05 -24.65 29.07 C-26.65 30.75 -26.65 30.75 -28.65 32.07 C-28.32 32.73 -27.99 33.39 -27.65 34.07 C-27.57 36.62 -27.55 39.14 -27.58 41.69 C-27.59 42.4 -27.59 43.1 -27.6 43.83 C-27.61 45.58 -27.63 47.32 -27.65 49.07 C-28.64 49.56 -28.64 49.56 -29.65 50.07 C-29.87 50.83 -30.1 51.59 -30.33 52.38 C-31.77 55.33 -33.19 56.82 -36.11 58.33 C-39.65 59.36 -43.12 59.55 -46.77 59.63 C-47.46 59.66 -48.16 59.68 -48.87 59.71 C-52.73 59.68 -54.45 59.22 -57.46 56.76 C-58.18 55.87 -58.9 54.98 -59.65 54.07 C-60.17 53.46 -60.69 52.84 -61.23 52.21 C-65.54 46 -65.44 40.25 -64.32 32.95 C-63.38 28.91 -61.67 26.79 -58.65 24.07 C-58.32 23.08 -57.99 22.09 -57.65 21.07 C-56.44 21.03 -55.24 20.99 -54 20.95 C-52.42 20.89 -50.85 20.82 -49.27 20.75 C-48.48 20.73 -47.68 20.71 -46.86 20.69 C-44.78 20.59 -42.71 20.34 -40.65 20.07 C-39.99 19.08 -39.33 18.09 -38.65 17.07 C-34.28 16.34 -31.41 17.97 -27.65 20.07 C-27.92 18.67 -27.92 18.67 -28.21 17.25 C-28.65 14.07 -28.65 14.07 -27.65 11.07 C-29.63 11.07 -31.61 11.07 -33.65 11.07 C-33.65 10.41 -33.65 9.75 -33.65 9.07 C-38.63 8.3 -43.55 7.82 -48.58 7.5 C-49.27 7.46 -49.95 7.42 -50.66 7.37 C-52.32 7.27 -53.98 7.17 -55.65 7.07 C-55.98 5.09 -56.31 3.11 -56.65 1.07 C-49.12 0.92 -41.59 0.78 -34.07 0.64 C-31.51 0.59 -28.95 0.54 -26.4 0.49 C-22.71 0.42 -19.02 0.35 -15.34 0.29 C-13.64 0.25 -13.64 0.25 -11.9 0.22 C-9.78 0.18 -7.65 0.14 -5.53 0.11 C-3.69 0.08 -1.84 0.05 0 0 Z M-26.65 9.07 C-26.98 9.73 -27.31 10.39 -27.65 11.07 C-26.33 11.07 -25.01 11.07 -23.65 11.07 C-23.65 10.41 -23.65 9.75 -23.65 9.07 C-24.64 9.07 -25.63 9.07 -26.65 9.07 Z " fill="#223243" transform="translate(407.6457824707031,22.933700561523438)"/>
<path d="M0 0 C-0.33 3.96 -0.66 7.92 -1 12 C-0.34 12 0.32 12 1 12 C1.22 10.58 1.22 10.58 1.44 9.12 C2 6 2 6 3 4 C3.66 4 4.32 4 5 4 C5 3.34 5 2.68 5 2 C6.65 2.33 8.3 2.66 10 3 C10 3.66 10 4.32 10 5 C8.35 5.33 6.7 5.66 5 6 C5.48 7.6 5.96 9.21 6.44 10.81 C6.84 12.15 6.84 12.15 7.25 13.52 C7.8 15.35 8.39 17.18 9 19 C15.07 19.52 15.07 19.52 20.62 17.44 C22.29 14.95 22.29 14.95 22 11.44 C21.3 8.01 21.3 8.01 19.19 6.19 C17.14 5.08 15.11 3.98 13 3 C15.69 2.62 15.69 2.62 19 3 C22.53 6.37 24.57 9.09 25 14 C25.66 14 26.32 14 27 14 C27.33 13.34 27.66 12.68 28 12 C28.66 12 29.32 12 30 12 C30 10.35 30 8.7 30 7 C30.66 7 31.32 7 32 7 C31.93 8.95 31.87 10.91 31.8 12.86 C32.03 15.3 32.79 16.89 34 19 C35.46 18.89 36.92 18.76 38.38 18.62 C39.59 18.52 39.59 18.52 40.84 18.41 C43.2 18.17 43.2 18.17 45 16 C45.46 11.38 45.46 11.38 43.94 7.12 C41.08 5.47 38.25 5.31 35 5 C35 4.67 35 4.34 35 4 C39.18 3.48 41.69 3.17 45.31 5.45 C47.39 7.22 49.29 8.88 51 11 C51 11.99 51 12.98 51 14 C51.66 14 52.32 14 53 14 C53.33 13.34 53.66 12.68 54 12 C54.27 12.76 54.54 13.53 54.81 14.31 C55.81 17 55.81 17 57.62 18.62 C58.08 19.08 58.53 19.53 59 20 C59 20.99 59 21.98 59 23 C60.32 23 61.64 23 63 23 C63 23.99 63 24.98 63 26 C64.98 25.67 66.96 25.34 69 25 C69.33 23.35 69.66 21.7 70 20 C71.49 20.5 71.49 20.5 73 21 C73.99 20.5 73.99 20.5 75 20 C75 22.64 75 25.28 75 28 C75.66 28 76.32 28 77 28 C80 31.46 80 31.46 80 34 C80.99 34 81.98 34 83 34 C83.5 33.01 83.5 33.01 84 32 C83.67 34.31 83.34 36.62 83 39 C82.34 39 81.68 39 81 39 C81.02 39.97 81.04 40.94 81.06 41.94 C80.13 48.48 73.98 52.62 69.12 56.51 C58.2 64.02 45.96 66.34 33 65 C29.53 63.97 29.53 63.97 27 63 C27 63.71 27 64.41 27 65.14 C25.44 69.62 21.94 71.3 18.06 73.81 C16.95 74.57 16.95 74.57 15.81 75.33 C10.31 79 10.31 79 8 79 C8 69.76 8 60.52 8 51 C6.68 50.34 5.36 49.68 4 49 C-1.2 44.32 -4.71 39.9 -6 33 C-6.52 31.37 -7.04 29.75 -7.56 28.12 C-9.5 21.14 -10.85 11.43 -7.98 4.56 C-7.66 4.04 -7.33 3.53 -7 3 C-6.34 3.33 -5.68 3.66 -5 4 C-5 3.01 -5 2.02 -5 1 C-2 0 -2 0 0 0 Z " fill="#37A7FB" transform="translate(215,276)"/>
<path d="M0 0 C0.66 0 1.32 0 2 0 C2 1.98 2 3.96 2 6 C3.32 6.33 4.64 6.66 6 7 C5.01 7.5 5.01 7.5 4 8 C3.26 10.48 2.82 12.31 3.47 14.84 C4.09 17.36 4.11 19.61 4.1 22.2 C4.09 23.18 4.09 24.16 4.09 25.17 C4.08 26.19 4.07 27.2 4.06 28.25 C4.06 29.28 4.05 30.31 4.05 31.38 C4.04 33.92 4.02 36.46 4 39 C4.66 39 5.32 39 6 39 C6 39.66 6 40.32 6 41 C7.98 40.5 7.98 40.5 10 40 C9.69 40.77 9.69 40.77 9.38 41.56 C8.84 45.05 9.88 47.7 11 51 C12.58 52.58 14.38 52.35 16.56 52.56 C17.39 52.65 18.22 52.73 19.07 52.82 C20.02 52.91 20.02 52.91 21 53 C21.34 54.56 21.67 56.12 22 57.69 C22.19 58.56 22.37 59.43 22.56 60.32 C23 63 23 63 23 68 C19.04 68 15.08 68 11 68 C10.69 69.86 10.69 69.86 10.38 71.75 C10.26 72.45 10.14 73.14 10.02 73.86 C10 76.41 10.72 77.82 12 80 C13.11 79.8 14.22 79.6 15.37 79.39 C26.77 77.77 26.77 77.77 30.79 79.98 C34.2 82.8 36.78 86.18 39 90 C39 90.99 39 91.98 39 93 C37.83 93.03 37.83 93.03 36.65 93.06 C33.14 93.16 29.63 93.26 26.12 93.38 C24.9 93.41 23.68 93.44 22.42 93.47 C21.25 93.51 20.08 93.55 18.88 93.59 C17.8 93.62 16.73 93.65 15.61 93.68 C12.84 93.75 12.84 93.75 11 96 C11.1 100.34 11.1 100.34 13 104 C14.92 104.16 16.85 104.25 18.79 104.32 C19.95 104.36 21.12 104.4 22.33 104.44 C23.56 104.48 24.79 104.52 26.06 104.56 C27.3 104.61 28.53 104.65 29.81 104.69 C32.87 104.8 35.94 104.9 39 105 C39 109.95 39 114.9 39 120 C38.34 120 37.68 120 37 120 C37 120.66 37 121.32 37 122 C34.69 122 32.38 122 30 122 C30 119.36 30 116.72 30 114 C25.55 114.5 25.55 114.5 21 115 C20.5 116.49 20.5 116.49 20 118 C18.68 118 17.36 118 16 118 C16 117.34 16 116.68 16 116 C15.34 116 14.68 116 14 116 C14 115.34 14 114.68 14 114 C13.34 114 12.68 114 12 114 C11.67 112.68 11.34 111.36 11 110 C9.68 109.67 8.36 109.34 7 109 C7 108.34 7 107.68 7 107 C6.34 107 5.68 107 5 107 C4.67 107.66 4.34 108.32 4 109 C4 106.69 4 104.38 4 102 C-0.95 102 -5.9 102 -11 102 C-13.23 86.14 -13.27 70.41 -13.2 54.43 C-13.18 51.59 -13.19 48.74 -13.19 45.89 C-13.19 43.13 -13.18 40.36 -13.17 37.6 C-13.17 35.66 -13.17 33.72 -13.16 31.78 C-13.08 16.08 -13.08 16.08 -11 14 C-9.35 14 -7.7 14 -6 14 C-6 10.04 -6 6.08 -6 2 C-5.34 2 -4.68 2 -4 2 C-4 2.66 -4 3.32 -4 4 C-2.68 4 -1.36 4 0 4 C0 2.68 0 1.36 0 0 Z " fill="#EEF0F5" transform="translate(172,242)"/>
<path d="M0 0 C11.57 5.81 20.64 17.41 29.51 26.56 C31.6 28.68 33.51 30.34 36 32 C36 32.66 36 33.32 36 34 C36.81 34.33 36.81 34.33 37.64 34.67 C40.76 36.43 43.16 38.75 45.69 41.25 C46.19 41.72 46.68 42.18 47.2 42.66 C50.53 45.94 51.7 48.34 52 53 C51.01 53.33 50.02 53.66 49 54 C49.33 54.99 49.66 55.98 50 57 C49.5 57.99 49.5 57.99 49 59 C47.02 58.34 45.04 57.68 43 57 C43.19 57.8 43.37 58.61 43.56 59.44 C43.71 60.28 43.85 61.13 44 62 C39.75 66.25 26.88 64.34 21.11 64.41 C19.66 64.43 18.21 64.46 16.76 64.51 C3.16 64.94 3.16 64.94 -1.25 61.41 C-2.74 59.72 -2.74 59.72 -4 58 C-4.8 57.05 -5.6 56.1 -6.42 55.12 C-9.48 49.2 -8.41 41.55 -8.25 35.06 C-8.23 33.6 -8.21 32.14 -8.2 30.68 C-8.15 27.12 -8.08 23.56 -8 20 C-7.34 20 -6.68 20 -6 20 C-6.33 19.34 -6.66 18.68 -7 18 C-7.59 10.73 -7.59 10.73 -5 7.5 C-4.34 7 -3.68 6.51 -3 6 C-5.16 6 -6.92 6.45 -9 7 C-8.4 4.98 -7.73 2.98 -7 1 C-4.43 -0.29 -2.86 -0.26 0 0 Z " fill="#0B2039" transform="translate(295,150)"/>
<path d="M0 0 C1.1 -0 2.21 -0 3.34 -0.01 C5.16 -0 5.16 -0 7 0 C8.29 0 9.58 0 10.9 0 C14.47 -0 18.04 0 21.61 0.01 C25.46 0.01 29.31 0.01 33.16 0.01 C39.82 0.01 46.49 0.01 53.16 0.02 C62.8 0.03 72.44 0.03 82.09 0.03 C97.73 0.03 113.37 0.04 129.01 0.05 C144.21 0.06 159.4 0.06 174.6 0.07 C175.54 0.07 176.47 0.07 177.44 0.07 C182.14 0.07 186.84 0.07 191.53 0.07 C230.52 0.08 269.5 0.1 308.48 0.12 C308.48 0.45 308.48 0.78 308.48 1.12 C205.52 1.45 102.56 1.78 -3.52 2.12 C-3.52 2.45 -3.52 2.78 -3.52 3.12 C-1.67 3.11 -1.67 3.11 0.21 3.09 C1.84 3.08 3.47 3.07 5.11 3.06 C6.32 3.05 6.32 3.05 7.56 3.04 C11.98 3.02 16.12 3.23 20.48 4.12 C19.49 6.1 18.5 8.08 17.48 10.12 C16.49 10.12 15.5 10.12 14.48 10.12 C14.48 9.46 14.48 8.8 14.48 8.12 C9.64 8.78 9.64 8.78 4.86 9.75 C2.14 10.18 0.13 9.8 -2.52 9.12 C-3.01 7.64 -3.01 7.64 -3.52 6.12 C-5.17 6.24 -6.81 6.36 -8.46 6.5 C-9.83 6.6 -9.83 6.6 -11.23 6.71 C-11.99 6.85 -12.74 6.98 -13.52 7.12 C-13.85 7.78 -14.18 8.44 -14.52 9.12 C-16.84 9.52 -19.18 9.85 -21.52 10.12 C-23.8 10.48 -23.8 10.48 -25.52 11.12 C-25.85 11.78 -26.18 12.44 -26.52 13.12 C-25.86 13.78 -25.2 14.44 -24.52 15.12 C-26.17 16.11 -27.82 17.1 -29.52 18.12 C-29.27 19.45 -29.27 19.45 -29.02 20.81 C-28.59 23.67 -28.52 26.24 -28.52 29.12 C-28.22 30.8 -27.9 32.47 -27.52 34.12 C-26.49 34.04 -25.46 33.96 -24.39 33.87 C-19.05 34.22 -16.4 36.36 -12.58 39.94 C-10.92 43.35 -11.51 45.53 -12.52 49.12 C-15.52 52.66 -17.63 54.87 -22.27 55.5 C-25.75 55.1 -27.73 54.2 -30.32 51.82 C-32.58 48.63 -32.85 44.94 -32.52 41.12 C-31.52 38.85 -31.52 38.85 -30.52 37.12 C-31.26 37.33 -32 37.54 -32.77 37.75 C-35.87 38.17 -37 37.92 -39.52 36.12 C-39.85 35.13 -40.18 34.14 -40.52 33.12 C-42.99 33.62 -42.99 33.62 -45.52 34.12 C-46.18 32.47 -46.84 30.82 -47.52 29.12 C-52.11 33.19 -54.74 37.69 -57.52 43.12 C-58.51 43.12 -59.5 43.12 -60.52 43.12 C-60.19 44.77 -59.86 46.42 -59.52 48.12 C-60.18 48.12 -60.84 48.12 -61.52 48.12 C-61.19 48.78 -60.86 49.44 -60.52 50.12 C-60.52 51.44 -60.52 52.76 -60.52 54.12 C-63.02 56.37 -63.02 56.37 -65.52 58.12 C-65.08 51.23 -63.57 46.27 -60.52 40.12 C-60.03 38.95 -60.03 38.95 -59.53 37.76 C-55.71 29.05 -48.57 20.32 -40.52 15.12 C-39.86 15.12 -39.2 15.12 -38.52 15.12 C-38.52 14.46 -38.52 13.8 -38.52 13.12 C-27.99 5.21 -13.18 -0.01 0 0 Z " fill="#3E5262" transform="translate(93.51909351348877,19.876952171325684)"/>
<path d="M0 0 C3.24 1.79 6.32 3.63 8 7 C8.04 9.33 8.04 11.67 8 14 C8 14.33 8 14.66 8 15 C8.66 14.67 9.32 14.34 10 14 C11 15 12 16 13 17 C13.66 15.68 14.32 14.36 15 13 C16.65 13 18.3 13 20 13 C20.21 11.95 20.41 10.9 20.62 9.81 C21.65 6.34 23.18 4.09 26.16 1.88 C29.71 0.18 33.18 0.23 37 1 C40.6 3.15 42.45 5.15 44 9 C44.2 11.58 44.2 11.58 44.12 14.25 C44.11 15.14 44.09 16.03 44.07 16.95 C44.05 17.63 44.02 18.3 44 19 C43.01 19.33 42.02 19.66 41 20 C41.99 20.99 42.98 21.98 44 23 C42.35 23.33 40.7 23.66 39 24 C39.99 24.33 40.98 24.66 42 25 C41 28 41 28 39.06 29 C38.38 29.33 37.7 29.66 37 30 C36.34 30.99 35.68 31.98 35 33 C32.38 33.69 32.38 33.69 30 34 C29.67 33.01 29.34 32.02 29 31 C26.03 30.67 23.06 30.34 20 30 C19.5 28.02 19.5 28.02 19 26 C15.37 25.67 11.74 25.34 8 25 C7.34 23.35 6.68 21.7 6 20 C5.2 20.11 4.41 20.21 3.59 20.32 C-7.19 21.54 -7.19 21.54 -12 18 C-14.46 14.31 -14.69 11.29 -14 7 C-10.54 1.31 -6.66 -0.91 0 0 Z " fill="#213143" transform="translate(108,54)"/>
<path d="M0 0 C0.79 -0.01 1.59 -0.01 2.41 -0.02 C5.03 -0.04 7.66 -0.04 10.29 -0.03 C12.11 -0.03 13.93 -0.04 15.76 -0.05 C19.58 -0.05 23.41 -0.05 27.24 -0.04 C32.14 -0.03 37.04 -0.05 41.95 -0.08 C45.72 -0.1 49.49 -0.1 53.25 -0.09 C55.06 -0.09 56.87 -0.1 58.68 -0.11 C61.21 -0.13 63.73 -0.11 66.26 -0.1 C67.01 -0.11 67.76 -0.12 68.53 -0.13 C71.99 -0.08 73.87 0.16 76.68 2.26 C78.51 4.85 78.54 6.3 78.2 9.4 C77.21 9.73 76.22 10.06 75.2 10.4 C75.2 11.06 75.2 11.72 75.2 12.4 C64.43 12.5 53.66 12.57 42.89 12.61 C37.88 12.63 32.88 12.66 27.88 12.71 C23.06 12.75 18.24 12.77 13.41 12.78 C11.57 12.79 9.73 12.81 7.88 12.83 C5.31 12.86 2.73 12.86 0.16 12.86 C-0.61 12.87 -1.38 12.89 -2.16 12.9 C-7.32 12.86 -7.32 12.86 -9.78 10.54 C-11.05 7.9 -11.25 6.3 -10.8 3.4 C-8.24 -0.62 -4.3 -0.03 0 0 Z " fill="#4F738D" transform="translate(191.804443359375,184.595947265625)"/>
<path d="M0 0 C4.49 4.49 4.26 12.3 4.33 18.34 C4.32 19.18 4.32 20.01 4.31 20.88 C4.31 22.19 4.31 22.19 4.3 23.53 C4.11 34.03 1.56 42.1 -4 51 C-4.66 50.34 -5.32 49.68 -6 49 C-5.67 48.01 -5.34 47.02 -5 46 C-4.34 46.33 -3.68 46.66 -3 47 C-3 45.35 -3 43.7 -3 42 C-3.99 42 -4.98 42 -6 42 C-9 38.67 -9 38.67 -9 36 C-9.66 36 -10.32 36 -11 36 C-11.33 37.32 -11.66 38.64 -12 40 C-12 36.37 -12 32.74 -12 29 C-12.99 29 -13.98 29 -15 29 C-15.21 29.64 -15.41 30.28 -15.62 30.94 C-17 33 -17 33 -20.12 33.75 C-21.07 33.83 -22.02 33.92 -23 34 C-23 33.01 -23 32.02 -23 31 C-24.32 31 -25.64 31 -27 31 C-28.56 28.75 -28.56 28.75 -30 26 C-31.47 23.74 -31.47 23.74 -33 22 C-33.66 22 -34.32 22 -35 22 C-35 21.01 -35 20.02 -35 19 C-35.58 18.73 -36.15 18.46 -36.75 18.19 C-39.03 16.98 -40.97 15.59 -43 14 C-41.5 15.06 -41.5 15.06 -40 17 C-39.37 22.89 -39.37 22.89 -41.06 25.88 C-44.13 27.66 -46.46 28 -50 28 C-53 26.06 -53 26.06 -55 23 C-55.11 20.11 -54.63 17.86 -54 15 C-54.66 15 -55.32 15 -56 15 C-56 16.65 -56 18.3 -56 20 C-56.66 20 -57.32 20 -58 20 C-58.33 20.99 -58.66 21.98 -59 23 C-61.55 21.73 -61.82 20.61 -63 18.06 C-65.04 13.66 -66.48 12.26 -71 10 C-67.37 10 -63.74 10 -60 10 C-59.67 10.66 -59.34 11.32 -59 12 C-58.34 12 -57.68 12 -57 12 C-56.34 11.01 -55.68 10.02 -55 9 C-52.69 9.33 -50.38 9.66 -48 10 C-48 9.34 -48 8.68 -48 8 C-46.54 8.28 -45.08 8.58 -43.62 8.88 C-42.41 9.12 -42.41 9.12 -41.16 9.37 C-39 10 -39 10 -37 12 C-36.01 12.66 -35.02 13.32 -34 14 C-33.34 13.34 -32.68 12.68 -32 12 C-26.07 10.8 -20.6 10.43 -15 13 C-15 13.66 -15 14.32 -15 15 C-14.01 15 -13.02 15 -12 15 C-11.5 18.96 -11.5 18.96 -11 23 C-10.01 23 -9.02 23 -8 23 C-7.01 23 -6.02 23 -5 23 C-4.01 25.48 -4.01 25.48 -3 28 C-1.68 28 -0.36 28 1 28 C1 23.38 1 18.76 1 14 C-0.32 13.67 -1.64 13.34 -3 13 C-2.88 11.58 -2.76 10.17 -2.62 8.75 C-2.56 7.96 -2.49 7.17 -2.41 6.36 C-1.98 3.91 -1.21 2.15 0 0 Z " fill="#3AADF4" transform="translate(301,268)"/>
<path d="M0 0 C4.1 2.83 7.57 6.45 9.81 10.94 C10.5 18.38 10.45 23.93 5.81 29.94 C0.64 34.73 -3.55 35.31 -10.4 35.21 C-15.42 34.72 -18.34 32.94 -21.72 29.28 C-25.74 23.83 -26.1 18.53 -25.19 11.94 C-23.24 6.1 -19.52 2.89 -14.27 -0.18 C-9.62 -2.14 -4.68 -1.56 0 0 Z " fill="#3FB8F7" transform="translate(368.1875,46.0625)"/>
<path d="M0 0 C1.34 -0.04 2.69 -0.07 4.03 -0.11 C5.22 -0.15 6.41 -0.2 7.63 -0.25 C11.47 0.23 13.07 1.52 15.83 4.15 C15.51 7.03 15.51 7.03 14.83 10.15 C11.1 12.63 8.22 12.45 3.91 12.44 C2.71 12.45 2.71 12.45 1.47 12.46 C-1.19 12.48 -3.85 12.49 -6.52 12.49 C-8.37 12.49 -10.22 12.5 -12.07 12.51 C-15.94 12.52 -19.82 12.52 -23.7 12.52 C-28.67 12.52 -33.64 12.55 -38.62 12.58 C-42.44 12.61 -46.26 12.61 -50.08 12.61 C-51.91 12.61 -53.74 12.62 -55.58 12.64 C-58.14 12.66 -60.7 12.65 -63.26 12.64 C-64.02 12.65 -64.78 12.66 -65.57 12.67 C-68.87 12.63 -70.69 12.59 -73.18 10.32 C-74.57 7.29 -74.02 5.31 -73.17 2.15 C-71.35 0.33 -68.51 0.98 -66.06 0.95 C-64.74 0.93 -63.43 0.91 -62.08 0.89 C-60.63 0.87 -59.18 0.85 -57.73 0.84 C-56.24 0.81 -54.75 0.79 -53.27 0.77 C-49.33 0.72 -45.39 0.67 -41.46 0.62 C-38.29 0.58 -35.12 0.54 -31.95 0.49 C-28.13 0.44 -24.3 0.39 -20.48 0.34 C-19.77 0.33 -19.06 0.32 -18.32 0.31 C-14.92 0.26 -11.53 0.22 -8.13 0.2 C-5.41 0.17 -2.71 0.1 0 0 Z " fill="#466B88" transform="translate(255.17425537109375,208.84817504882813)"/>
<path d="M0 0 C4.69 2.92 8.65 5.52 10.81 10.75 C11.77 17.54 10.84 23.14 6.81 28.75 C1.44 33.73 -2.25 35.21 -9.46 35.07 C-14.56 34.48 -17.18 31.86 -20.5 28.19 C-24.32 22.67 -23.74 16.21 -23.19 9.75 C-19.12 0.26 -9.51 -3.73 0 0 Z " fill="#2CAAF4" transform="translate(417.1875,46.25)"/>
<path d="M0 0 C2 -0.04 4 -0.04 6 0 C6.33 0.33 6.66 0.66 7 1 C8.51 1.16 10.03 1.25 11.55 1.31 C13.01 1.37 13.01 1.37 14.5 1.44 C16.11 1.5 16.11 1.5 17.75 1.56 C18.87 1.6 19.99 1.64 21.15 1.68 C34.43 2.14 47.71 2.13 61 2.11 C63.81 2.11 66.62 2.11 69.43 2.11 C75.43 2.11 81.43 2.11 87.42 2.11 C96.09 2.1 104.76 2.09 113.43 2.09 C127.51 2.09 141.58 2.08 155.65 2.08 C169.3 2.07 182.96 2.06 196.61 2.05 C197.45 2.05 198.3 2.05 199.17 2.05 C203.41 2.05 207.65 2.05 211.88 2.05 C246.92 2.04 281.96 2.02 317 2 C312.36 4.58 308.04 5.12 302.78 5.13 C301.75 5.13 300.71 5.14 299.64 5.14 C298.51 5.14 297.38 5.14 296.22 5.13 C294.4 5.14 294.4 5.14 292.56 5.14 C289.21 5.15 285.86 5.15 282.51 5.15 C278.9 5.15 275.29 5.15 271.68 5.16 C264.6 5.16 257.52 5.17 250.45 5.17 C244.7 5.17 238.94 5.17 233.19 5.17 C216.88 5.18 200.57 5.19 184.26 5.19 C183.38 5.19 182.5 5.19 181.6 5.19 C180.72 5.19 179.84 5.19 178.93 5.19 C164.66 5.18 150.4 5.19 136.13 5.21 C121.48 5.22 106.83 5.23 92.18 5.23 C83.96 5.23 75.74 5.23 67.51 5.24 C60.51 5.25 53.51 5.25 46.5 5.25 C42.93 5.24 39.36 5.24 35.79 5.25 C31.91 5.26 28.04 5.25 24.17 5.25 C23.04 5.25 21.92 5.26 20.76 5.26 C14.81 5.24 9.69 4.73 4 3 C4 2.34 4 1.68 4 1 C2.35 1.33 0.7 1.66 -1 2 C-0.67 1.34 -0.34 0.68 0 0 Z " fill="#99B9D4" transform="translate(84,473)"/>
<path d="M0 0 C0.87 -0.01 1.74 -0.02 2.64 -0.04 C3.89 -0.03 3.89 -0.03 5.16 -0.02 C5.92 -0.02 6.68 -0.02 7.47 -0.01 C9.38 0.38 9.38 0.38 11.38 3.38 C11.69 5.94 11.69 5.94 11.38 8.38 C7.57 10.91 4.29 10.79 -0.12 10.94 C-5.96 11.1 -5.96 11.1 -11.62 12.38 C-11.54 13.13 -11.46 13.88 -11.38 14.66 C-11.62 17.38 -11.62 17.38 -13.25 19.22 C-25.77 27.95 -37.9 30.03 -52.84 29.45 C-56.43 29.08 -56.43 29.08 -58.62 30.38 C-58.96 29.38 -59.28 28.39 -59.62 27.38 C-57.97 27.38 -56.32 27.38 -54.62 27.38 C-54.62 26.71 -54.62 26.06 -54.62 25.38 C-50.34 25.38 -46.05 25.38 -41.62 25.38 C-41.3 24.71 -40.96 24.06 -40.62 23.38 C-41.29 23.05 -41.94 22.71 -42.62 22.38 C-42.62 21.71 -42.62 21.06 -42.62 20.38 C-41.63 20.38 -40.64 20.38 -39.62 20.38 C-42.6 19.38 -45.56 18.39 -48.62 17.38 C-48.3 18.69 -47.96 20.01 -47.62 21.38 C-49.6 22.37 -49.6 22.37 -51.62 23.38 C-52.62 21.06 -53.6 18.75 -54.62 16.38 C-53.81 16.36 -53 16.35 -52.16 16.33 C-37.42 15.72 -22.67 12.57 -11.96 1.69 C-8.16 -0.44 -4.28 -0.06 0 0 Z " fill="#C6D2DD" transform="translate(304.625,335.625)"/>
<path d="M0 0 C0.66 0 1.32 0 2 0 C3.38 1.4 3.38 1.4 5 3.38 C11.13 10.58 17.86 17.13 25.05 23.27 C27.92 25.81 30.57 28.55 33.24 31.3 C35.09 33.19 35.09 33.19 38 35 C38 35.66 38 36.32 38 37 C33.55 37.2 29.11 37.34 24.66 37.44 C23.15 37.48 21.63 37.53 20.12 37.6 C8.08 38.14 8.08 38.14 3.65 35.71 C-1.76 29.8 -0.66 21.48 -0.38 14 C-0.34 12.64 -0.32 11.28 -0.29 9.92 C-0.22 6.61 -0.12 3.31 0 0 Z " fill="#3FC1F3" transform="translate(298,167)"/>
<path d="M0 0 C0 4.03 -1.61 5.84 -4 9 C-4.66 9 -5.32 9 -6 9 C-6.33 9.99 -6.66 10.98 -7 12 C-7.99 12.66 -8.98 13.32 -10 14 C-11.11 17.57 -11.11 17.57 -10 21 C-9.34 20.67 -8.68 20.34 -8 20 C-5.69 20.27 -5.69 20.27 -3 20.81 C-2.11 20.98 -1.23 21.16 -0.31 21.33 C2 22 2 22 4 24 C3.97 26.73 3.44 29.3 3 32 C4.05 32.23 5.1 32.45 6.19 32.69 C10.19 33.84 12.43 35.66 15 39 C15.62 41.5 15.62 41.5 15 44 C12.34 47.62 10.91 48.86 6.44 49.56 C3 49 3 49 0.69 47.38 C-2.19 43.32 -3 39.94 -3 35 C-0.53 34.5 -0.53 34.5 2 34 C1.67 33.34 1.34 32.68 1 32 C-1.02 31.35 -1.02 31.35 -3 31 C-3 31.66 -3 32.32 -3 33 C-3.66 33 -4.32 33 -5 33 C-5.66 35.64 -6.32 38.28 -7 41 C-7.66 41 -8.32 41 -9 41 C-9.33 41.99 -9.66 42.98 -10 44 C-10.19 38.47 -9.75 34.24 -8 29 C-9.65 29.33 -11.3 29.66 -13 30 C-13 30.99 -13 31.98 -13 33 C-13.66 33 -14.32 33 -15 33 C-16.4 42.42 -16.54 50.38 -13.66 59.55 C-13 62 -13 62 -13 66 C-19.31 59.69 -19.39 49.75 -19.44 41.38 C-19.45 40.51 -19.46 39.64 -19.47 38.74 C-19.25 22.37 -11.22 11.22 0 0 Z " fill="#45B7F6" transform="translate(223,247)"/>
<path d="M0 0 C0.33 0 0.66 0 1 0 C1.05 1.19 1.1 2.38 1.15 3.61 C1.22 5.18 1.3 6.75 1.38 8.31 C1.41 9.1 1.44 9.88 1.47 10.69 C1.51 11.45 1.55 12.21 1.59 12.99 C1.62 13.68 1.65 14.38 1.68 15.1 C1.92 17.33 1.92 17.33 4 20 C12.23 21.18 17.16 18.32 24 14 C24.92 13.42 24.92 13.42 25.86 12.83 C29.93 10.26 33.97 7.65 38 5 C41 7 41 7 41.69 9.12 C41.84 10.05 41.84 10.05 42 11 C42.99 10.67 43.98 10.34 45 10 C44.5 9.01 44.5 9.01 44 8 C44.33 7.34 44.66 6.68 45 6 C49.95 6.99 49.95 6.99 55 8 C54.34 8.66 53.68 9.32 53 10 C52.34 9.67 51.68 9.34 51 9 C51 9.66 51 10.32 51 11 C51.99 11.33 52.98 11.66 54 12 C53.34 12.99 52.68 13.98 52 15 C47.71 14.67 43.42 14.34 39 14 C39 14.66 39 15.32 39 16 C38.07 16.12 38.07 16.12 37.12 16.25 C34.85 16.77 34.85 16.77 34.12 18.81 C32.48 22.01 30.05 23.22 27 25 C26.34 25 25.68 25 25 25 C25 25.66 25 26.32 25 27 C18.03 31 13.3 33.3 5 32 C1.75 28.67 0.54 25.59 0 21 C-2.97 21 -5.94 21 -9 21 C-9 19.68 -9 18.36 -9 17 C-6.69 17 -4.38 17 -2 17 C-2 16.34 -2 15.68 -2 15 C-1.34 15 -0.68 15 0 15 C0 10.05 0 5.1 0 0 Z " fill="#C7D4DF" transform="translate(211,347)"/>
<path d="M0 0 C2.66 1.77 3.6 2.77 4.62 5.75 C3.63 5.09 2.64 4.43 1.62 3.75 C-0.03 3.37 -1.7 3.02 -3.38 2.75 C-3.38 3.41 -3.38 4.07 -3.38 4.75 C-5.36 4.09 -7.33 3.43 -9.38 2.75 C-9.38 4.73 -9.38 6.71 -9.38 8.75 C-10.04 7.43 -10.69 6.11 -11.38 4.75 C-12.37 5.74 -13.36 6.73 -14.38 7.75 C-13.63 10.82 -13.63 10.82 -11.38 12.5 C-7.18 14.25 -3.76 13.54 0.62 12.75 C1.99 15.48 1.75 17.73 1.62 20.75 C0.62 21.75 0.62 21.75 -1.27 21.81 C-2.04 21.79 -2.82 21.77 -3.62 21.75 C-7.02 21.71 -10.06 21.9 -13.38 22.75 C-14.04 20.44 -14.69 18.13 -15.38 15.75 C-16.63 18.71 -17.74 21.6 -18.38 24.75 C-17.22 27.68 -17.22 27.68 -15.38 29.75 C-15.38 30.41 -15.38 31.07 -15.38 31.75 C-10.35 32.38 -5.45 32.88 -0.38 32.75 C-0.7 33.41 -1.04 34.07 -1.38 34.75 C-11.11 35.37 -11.11 35.37 -15.81 33.06 C-20.21 29.09 -23.12 25.89 -23.61 19.82 C-23.81 10.77 -23.81 10.77 -21.88 6.25 C-15.22 -0.41 -9.3 -3.44 0 0 Z " fill="#45ACF2" transform="translate(417.375,46.25)"/>
<path d="M0 0 C0.33 0 0.66 0 1 0 C1.18 0.85 1.18 0.85 1.37 1.71 C1.53 2.45 1.7 3.18 1.88 3.94 C2.12 5.03 2.12 5.03 2.37 6.15 C2.83 8.21 2.83 8.21 5 9 C6.58 16.59 5.89 24.3 5.56 32 C5.51 33.36 5.46 34.72 5.4 36.08 C5.28 39.39 5.14 42.69 5 46 C4.67 46 4.34 46 4 46 C3.67 39.73 3.34 33.46 3 27 C2.01 27.99 1.02 28.98 0 30 C-1.32 27.36 -2.64 24.72 -4 22 C-4.33 79.09 -4.66 136.18 -5 195 C-5.33 195 -5.66 195 -6 195 C-6.09 171.87 -6.16 148.74 -6.21 125.61 C-6.23 114.86 -6.26 104.12 -6.3 93.38 C-6.34 84.02 -6.37 74.65 -6.38 65.29 C-6.38 60.33 -6.39 55.37 -6.42 50.42 C-6.45 45.75 -6.46 41.08 -6.45 36.4 C-6.45 34.7 -6.46 32.99 -6.48 31.28 C-6.57 19.89 -5.32 10.27 0 0 Z " fill="#394D67" transform="translate(152,170)"/>
<path d="M0 0 C0.86 0 1.72 0.01 2.61 0.01 C5.36 0.03 8.11 0.07 10.86 0.11 C12.73 0.12 14.59 0.13 16.46 0.15 C21.03 0.18 25.6 0.23 30.18 0.29 C29.43 0.88 28.69 1.46 27.93 2.06 C25.25 4.18 25.25 4.18 23.17 6.19 C16.85 11.91 11.61 12.26 3.3 11.92 C1.61 11.91 1.61 11.91 -0.11 11.9 C-8.24 11.73 -8.24 11.73 -10.64 9.92 C-12.34 7.59 -12.25 6.1 -11.82 3.29 C-8.65 -0.77 -4.78 -0.09 0 0 Z " fill="#3E6984" transform="translate(192.82421875,233.70703125)"/>
<path d="M0 0 C3.24 1.79 6.32 3.63 8 7 C8.51 11.38 8.28 13.51 6.06 17.38 C3.18 20.43 0.32 20.98 -3.78 21.18 C-7.08 20.91 -9.29 19.85 -12 18 C-14.46 14.31 -14.69 11.29 -14 7 C-10.54 1.31 -6.66 -0.91 0 0 Z " fill="#F2F6F7" transform="translate(108,54)"/>
<path d="M0 0 C3.43 2.04 5.86 4.11 7 8 C6.85 11.5 6.15 13.72 4.5 16.81 C0.93 19.94 -2.33 20.29 -7 20 C-10.52 18.7 -13.93 17.23 -16 14 C-16.5 10.66 -16.73 8.22 -14.95 5.25 C-10.5 -0.22 -6.77 -0.86 0 0 Z " fill="#F6FAFB" transform="translate(145,55)"/>
<path d="M0 0 C1.03 3.27 0.96 5.86 0.56 9.25 C0.46 10.14 0.36 11.03 0.25 11.95 C0.17 12.63 0.09 13.3 0 14 C-4.27 14.12 -8.54 14.19 -12.81 14.25 C-14.03 14.28 -15.24 14.32 -16.49 14.35 C-18.24 14.37 -18.24 14.37 -20.02 14.39 C-21.63 14.42 -21.63 14.42 -23.27 14.45 C-26 14 -26 14 -27.85 12.14 C-29.27 9.49 -29.46 7.96 -29 5 C-27.85 3.37 -27.85 3.37 -26 2 C-23.27 1.66 -23.27 1.66 -20.02 1.71 C-18.86 1.72 -17.69 1.73 -16.49 1.74 C-15.28 1.76 -14.06 1.79 -12.81 1.81 C-11.59 1.83 -10.36 1.84 -9.1 1.85 C-6.06 1.89 -3.03 1.94 0 2 C0 1.34 0 0.68 0 0 Z " fill="#617D8D" transform="translate(211,333)"/>
<path d="M0 0 C3.96 2.49 5.66 3.96 7.12 8.44 C6.97 12.85 5.86 14.68 3 18 C-0.2 20.35 -3.1 20.55 -7 20 C-10.52 17.94 -12.43 16.74 -13.7 12.84 C-14.28 9.07 -14.25 6.63 -12.81 3.06 C-8.85 -1.45 -5.78 -1.5 0 0 Z " fill="#F0F4F7" transform="translate(75,55)"/>
<path d="M0 0 C34.32 0 68.64 0 104 0 C104.5 20.3 104.5 20.3 105 41 C106.98 43.97 108.96 46.94 111 50 C111.33 50.66 111.66 51.32 112 52 C110.51 52.5 110.51 52.5 109 53 C109 53.66 109 54.32 109 55 C107.68 55 106.36 55 105 55 C102.09 50.22 101.8 47.45 103 42 C102.34 42 101.68 42 101 42 C101.5 43.98 101.5 43.98 102 46 C101.34 45.67 100.68 45.34 100 45 C100.01 44.31 100.02 43.63 100.04 42.92 C100.04 42.02 100.05 41.12 100.06 40.19 C100.07 39.29 100.09 38.4 100.1 37.48 C100.11 34.87 100.11 34.87 99 32 C99.66 32 100.32 32 101 32 C101 21.77 101 11.54 101 1 C89.52 1.12 89.52 1.12 78.04 1.26 C73.36 1.32 68.68 1.38 64 1.42 C60.22 1.46 56.45 1.51 52.68 1.56 C51.24 1.58 49.8 1.59 48.35 1.6 C46.34 1.62 44.32 1.65 42.31 1.68 C40.59 1.7 40.59 1.7 38.83 1.72 C35.8 1.8 35.8 1.8 33 4 C29.81 4.12 29.81 4.12 27 4 C27.33 3.01 27.66 2.02 28 1 C18.76 1 9.52 1 0 1 C0 0.67 0 0.34 0 0 Z " fill="#E4EBEE" transform="translate(183,160)"/>
<path d="M0 0 C6.54 5.12 6.54 5.12 8 9 C8.71 15.59 8.74 21.4 5 27 C4.03 24.39 3.87 23.31 4.94 20.69 C6.29 17.26 6.34 14.65 6 11 C4.65 9.06 4.65 9.06 3 8 C2.67 8.66 2.34 9.32 2 10 C1.34 9.67 0.68 9.34 0 9 C0.12 9.6 0.24 10.21 0.36 10.83 C1.39 17.23 1.39 17.23 -0.31 20.56 C-4.49 22.8 -8.37 22.59 -13 22 C-16.12 21 -16.12 21 -18 19 C-18.41 16.2 -18.23 13.85 -18 11 C-12.56 10.01 -12.56 10.01 -7 9 C-6.67 8.01 -6.34 7.02 -6 6 C-4.35 5.67 -2.7 5.34 -1 5 C-0.67 3.35 -0.34 1.7 0 0 Z " fill="#4DB4EC" transform="translate(370,48)"/>
<path d="M0 0 C1.29 -0 1.29 -0 2.6 -0.01 C7.24 0.12 7.24 0.12 9.12 0.56 C11.26 3.77 11.6 4.84 11.12 8.56 C7.9 10.71 6.79 10.86 3.05 11.01 C2.05 11.05 1.05 11.1 0.03 11.14 C-1.01 11.18 -2.05 11.21 -3.12 11.25 C-4.15 11.3 -5.17 11.34 -6.23 11.39 C-11.6 11.6 -16.59 11.56 -21.88 10.56 C-20.6 9.18 -19.24 7.86 -17.88 6.56 C-17.42 6.03 -16.96 5.51 -16.5 4.96 C-11.55 0.12 -6.6 0.01 0 0 Z " fill="#617D91" transform="translate(304.875,335.4375)"/>
<path d="M0 0 C5.3 3.29 8.23 6.43 11.51 11.71 C13.71 15.09 16.31 17.99 19 21 C15.37 21 11.74 21 8 21 C8 20.34 8 19.68 8 19 C7.34 19 6.68 19 6 19 C6 18.01 6 17.02 6 16 C4.42 16.15 4.42 16.15 2.81 16.31 C-1 16 -1 16 -3.94 13.81 C-6 11 -6 11 -6.5 8.38 C-5.91 5.59 -5.27 4.68 -3 3 C-2.01 2.67 -1.02 2.34 0 2 C0 1.34 0 0.68 0 0 Z " fill="#35CCFA" transform="translate(312,181)"/>
<path d="M0 0 C4.27 -0.12 8.54 -0.19 12.81 -0.25 C14.03 -0.28 15.24 -0.32 16.49 -0.35 C18.24 -0.37 18.24 -0.37 20.02 -0.39 C21.63 -0.42 21.63 -0.42 23.27 -0.45 C26 0 26 0 27.88 1.89 C29 4 29 4 28.88 6.12 C28 8 28 8 25 10 C18.57 11.02 12.47 11.52 6.79 8.02 C4.32 5.8 2.08 3.59 0 1 C0 0.67 0 0.34 0 0 Z " fill="#4C7289" transform="translate(288,234)"/>
<path d="M0 0 C2.56 1.62 2.56 1.62 4 4 C4.48 7.26 4.3 9.27 3.06 12.31 C0.24 14.62 -2.18 14.98 -5.77 15.23 C-8 15 -8 15 -11.06 12.94 C-13.32 9.51 -13.77 8.01 -13 4 C-9.97 -1.01 -5.32 -0.96 0 0 Z " fill="#EFFCFC" transform="translate(283,281)"/>
<path d="M0 0 C3.07 2.29 4.69 3.76 5.62 7.5 C4.69 11.24 3.07 12.71 0 15 C-3.96 15.63 -6 15.66 -9.38 13.44 C-11.56 10.16 -12.07 7.93 -12 4 C-8.54 -0.21 -5.28 -0.85 0 0 Z " fill="#ECFAFC" transform="translate(233,281)"/>
<path d="M0 0 C2.05 2.05 2.64 3.27 3.62 5.94 C4.02 6.97 4.02 6.97 4.41 8.03 C5 10 5 10 5 13 C1.43 13.8 -1.97 14.22 -5.62 14.31 C-6.57 14.35 -7.51 14.39 -8.48 14.43 C-11 14 -11 14 -12.82 12.14 C-14.27 9.51 -14.38 7.96 -14 5 C-13.34 4.01 -12.68 3.02 -12 2 C-9.18 1.71 -9.18 1.71 -5.88 1.81 C-4.23 1.85 -4.23 1.85 -2.55 1.89 C-1.29 1.95 -1.29 1.95 0 2 C0 1.34 0 0.68 0 0 Z " fill="#4D6980" transform="translate(195,308)"/>
<path d="M0 0 C1.12 0.03 1.12 0.03 2.26 0.05 C4.09 0.1 5.92 0.17 7.75 0.25 C5.77 4.21 3.79 8.17 1.75 12.25 C-8.75 12.62 -8.75 12.62 -11.08 10.89 C-12.25 9.25 -12.25 9.25 -12.69 6.81 C-11.48 -0.23 -6.05 -0.28 0 0 Z " fill="#406683" transform="translate(193.25,256.75)"/>
<path d="M0 0 C1.32 0.66 2.64 1.32 4 2 C3.67 5.3 3.34 8.6 3 12 C2.34 12 1.68 12 1 12 C0.8 12.61 0.59 13.23 0.38 13.86 C-0.75 17.24 -1.87 20.62 -3 24 C-2.01 24.66 -1.02 25.32 0 26 C-5.28 26 -10.56 26 -16 26 C-15.13 24.85 -14.27 23.69 -13.38 22.5 C-12.83 21.77 -12.28 21.03 -11.72 20.27 C-10.64 18.84 -9.54 17.43 -8.41 16.04 C-4.42 11.06 -2.09 6.01 0 0 Z " fill="#CAD7DF" transform="translate(312,310)"/>
<path d="M0 0 C2.94 0.56 2.94 0.56 4.81 2.06 C6.4 5.58 6.61 8.81 5.94 12.56 C4.25 15.56 4.25 15.56 1.94 17.56 C-0.62 18.06 -0.62 18.06 -3.06 17.56 C-5.83 15.38 -6.57 13.65 -7 10.19 C-7.27 6.76 -7.12 5.67 -5.5 2.5 C-3.06 0.56 -3.06 0.56 0 0 Z " fill="#6E8DA7" transform="translate(246.0625,424.4375)"/>
<path d="M0 0 C2.44 1.56 2.44 1.56 4 4 C4.42 7.43 4.67 9.82 2.94 12.88 C-0.13 14.66 -2.46 15 -6 15 C-9 13 -9 13 -11 10 C-11 6.46 -10.66 4.13 -8.88 1.06 C-5.82 -0.67 -3.43 -0.42 0 0 Z " fill="#F7FCFB" transform="translate(257,281)"/>
<path d="M0 0 C5.04 0.44 7.38 2.71 11 6 C9.33 9.94 6.77 12.79 4 16 C0.91 15.66 -0.32 14.74 -2.81 12.75 C-5 10 -5 10 -5.06 7.5 C-3.8 4.54 -2.13 2.4 0 0 Z " fill="#829DB3" transform="translate(85,150)"/>
<path d="M0 0 C2 3 2 3 4 6 C4.99 6 5.98 6 7 6 C7.26 6.87 7.26 6.87 7.52 7.76 C9.08 12.81 11.03 16.59 14 21 C14.31 22.24 14.62 23.48 14.94 24.75 C15.29 25.82 15.64 26.89 16 28 C18.38 29.18 18.38 29.18 21 30 C23.28 32.54 25.11 35.16 27 38 C27.99 37.5 27.99 37.5 29 37 C29.66 38.98 30.32 40.96 31 43 C25.9 41.5 22.84 38.42 19.19 34.75 C18.57 34.13 17.95 33.51 17.32 32.87 C11.52 26.85 7.64 20.52 4 13 C3.55 12.1 3.1 11.19 2.63 10.26 C0.81 6.42 0 4.36 0 0 Z " fill="#A2BBD8" transform="translate(29,423)"/>
<path d="M0 0 C1 3 1 3 -0.26 6.11 C-0.87 7.33 -1.49 8.54 -2.12 9.75 C-2.45 10.38 -2.77 11.01 -3.11 11.66 C-7.68 20.4 -13.16 26.95 -21 33 C-21.66 32.67 -22.32 32.34 -23 32 C-22.62 30.06 -22.62 30.06 -22 28 C-21.34 27.67 -20.68 27.34 -20 27 C-20 25.35 -20 23.7 -20 22 C-16.54 21.5 -16.54 21.5 -13 21 C-13.33 20.01 -13.66 19.02 -14 18 C-13.01 17.67 -12.02 17.34 -11 17 C-10.67 15.35 -10.34 13.7 -10 12 C-9.01 11.67 -8.02 11.34 -7 11 C-7 10.01 -7 9.02 -7 8 C-6.34 8 -5.68 8 -5 8 C-4.67 6.68 -4.34 5.36 -4 4 C-3.34 4 -2.68 4 -2 4 C-1.34 2.68 -0.68 1.36 0 0 Z " fill="#A8C2DB" transform="translate(456,430)"/>
<path d="M0 0 C1.27 -0.03 2.53 -0.05 3.84 -0.08 C5.44 0.08 5.44 0.08 7.06 0.25 C9.06 3.25 9.06 3.25 8.75 5.88 C8.06 8.25 8.06 8.25 7.06 9.25 C4.92 9.4 2.77 9.47 0.62 9.5 C-0.55 9.53 -1.72 9.55 -2.93 9.58 C-3.92 9.47 -4.92 9.36 -5.94 9.25 C-8.09 6.03 -8.23 4.97 -7.94 1.25 C-6 -0.69 -2.57 0.03 0 0 Z " fill="#E7FAFC" transform="translate(360.9375,58.75)"/>
<path d="M0 0 C2.31 0 4.62 0 7 0 C7.33 0.99 7.66 1.98 8 3 C8.78 3.62 9.57 4.24 10.38 4.88 C14.61 8.3 16.09 11.36 16.88 16.69 C17.38 23.53 15.6 29.24 12.19 35.12 C10 37 10 37 6.75 37.31 C5.39 37.16 5.39 37.16 4 37 C4 37.66 4 38.32 4 39 C-3.56 39.45 -8.76 39.54 -15 35 C-14.34 34.34 -13.68 33.68 -13 33 C-12.4 33.5 -11.8 33.99 -11.19 34.5 C-6.45 36.73 -2.14 36.77 3 36 C8.11 33.97 11.17 30.21 13.34 25.25 C14.97 19.7 14.86 14.86 12.44 9.62 C9.5 6.46 6.82 5.01 3 3 C1.06 1.25 1.06 1.25 0 0 Z " fill="#0C365C" transform="translate(413,44)"/>
<path d="M0 0 C0.9 0.02 1.81 0.05 2.74 0.07 C5.16 0.13 5.16 0.13 7.62 0.2 C7.62 4.16 7.62 8.12 7.62 12.2 C6.19 12.26 4.77 12.32 3.3 12.38 C2.1 12.44 2.1 12.44 0.88 12.49 C-1.38 12.2 -1.38 12.2 -3.16 10.91 C-5.17 8.1 -4.68 5.52 -4.38 2.2 C-2.38 0.2 -2.38 0.2 0 0 Z " fill="#507294" transform="translate(185.3828125,282.8046875)"/>
<path d="M0 0 C2.33 0.33 4.67 0.67 7 1 C7.33 0.67 7.66 0.34 8 0 C10 -0.04 12 -0.04 14 0 C15.37 2.73 15.13 4.98 15 8 C14 9 14 9 12.11 9.06 C11.33 9.04 10.55 9.02 9.75 9 C6.34 8.95 3.34 9.27 0 10 C-1 9 -1 9 -1.13 7.19 C-1.13 6.47 -1.13 5.74 -1.12 5 C-1.13 4.28 -1.13 3.56 -1.13 2.81 C-1 1 -1 1 0 0 Z " fill="#BDEFFD" transform="translate(404,59)"/>
<path d="M0 0 C5.23 0.57 9.25 2.28 13.88 4.62 C14.58 4.98 15.28 5.33 16.01 5.7 C21.33 8.46 25.85 11.63 30 16 C25.33 16 20.67 16 16 16 C16 15.01 16 14.02 16 13 C15.34 13 14.68 13 14 13 C14 11.68 14 10.36 14 9 C13.32 8.73 12.64 8.46 11.94 8.19 C8.6 6.84 5.3 5.42 2 4 C2.33 3.34 2.66 2.68 3 2 C2.01 1.34 1.02 0.68 0 0 Z " fill="#34475A" transform="translate(410,23)"/>
<path d="M0 0 C0.83 0.52 1.65 1.03 2.5 1.56 C5.53 3.3 7.56 3.24 11 3 C11 3.66 11 4.32 11 5 C13.47 5.5 13.47 5.5 16 6 C15.01 6.66 14.02 7.32 13 8 C14.32 8 15.64 8 17 8 C17 8.66 17 9.32 17 10 C17.66 10.33 18.32 10.66 19 11 C8.3 10.45 -1.99 6.79 -11 1 C-10.01 0.67 -9.02 0.34 -8 0 C-5.05 -1.47 -3.16 -0.74 0 0 Z " fill="#ABC4D8" transform="translate(71,466)"/>
<path d="M0 0 C0.33 0 0.66 0 1 0 C1 1.04 1 2.09 1 3.16 C1 7.07 1.04 10.98 1.1 14.89 C1.12 16.57 1.12 18.26 1.12 19.94 C1.05 33.58 1.05 33.58 8 45 C8.33 45.66 8.66 46.32 9 47 C7.51 47.5 7.51 47.5 6 48 C6 48.66 6 49.32 6 50 C4.68 50 3.36 50 2 50 C-1.47 44.51 -1.32 40.04 -1.07 33.79 C-1.03 32.34 -1.03 32.34 -0.99 30.86 C-0.91 27.78 -0.8 24.7 -0.69 21.62 C-0.62 19.53 -0.56 17.44 -0.5 15.35 C-0.35 10.23 -0.18 5.12 0 0 Z " fill="#CFD3DB" transform="translate(286,165)"/>
<path d="M0 0 C2.62 0.38 2.62 0.38 4.94 2 C7.05 4.98 6.95 6.8 6.62 10.38 C3.8 11.79 1.75 11.69 -1.38 11.38 C-3.76 9.22 -4.31 7.94 -4.69 4.75 C-4.25 1.43 -3.3 0.52 0 0 Z " fill="#DDFCFD" transform="translate(310.375,184.625)"/>
<path d="M0 0 C2.66 -0.33 2.66 -0.33 6 0 C8.77 2.3 8.77 2.3 11.38 5.31 C12.69 6.79 12.69 6.79 14.02 8.3 C16 11 16 11 16 14 C13.03 14 10.06 14 7 14 C7 13.34 7 12.68 7 12 C6.01 11.34 5.02 10.68 4 10 C3.71 7.84 3.71 7.84 3.81 5.38 C3.84 4.56 3.87 3.74 3.89 2.9 C3.93 2.27 3.96 1.65 4 1 C2.68 0.67 1.36 0.34 0 0 Z " fill="#CCD6E2" transform="translate(195,321)"/>
<path d="M0 0 C2 1 2 1 3 3 C1.07 5.44 -0.8 7.8 -3 10 C-3.33 10.99 -3.66 11.98 -4 13 C-3.34 13.33 -2.68 13.66 -2 14 C-3.36 13.97 -3.36 13.97 -4.75 13.94 C-7.44 13.99 -9.44 14.34 -12 15 C-12.33 14.67 -12.66 14.34 -13 14 C-13 11 -13 11 -11.1 8.96 C-10.28 8.25 -9.47 7.54 -8.62 6.81 C-7.81 6.1 -7 5.38 -6.16 4.64 C-4 3 -4 3 -2 3 C-2 2.34 -2 1.68 -2 1 C-1.34 0.67 -0.68 0.34 0 0 Z " fill="#3D5665" transform="translate(57,32)"/>
<path d="M0 0 C2.26 0.9 3.7 1.58 5.12 3.59 C6.35 6.97 6.21 10.21 6.12 13.75 C6.12 14.45 6.11 15.14 6.1 15.86 C6.07 17.58 6.04 19.29 6 21 C5.34 21.33 4.68 21.66 4 22 C3.66 23.14 3.66 23.14 3.31 24.31 C1.87 27.26 0.45 28.75 -2.46 30.28 C-8.34 31.95 -14.95 31.57 -21 31 C-21.99 30.34 -22.98 29.68 -24 29 C-23.67 28.34 -23.34 27.68 -23 27 C-22.45 27.32 -21.9 27.65 -21.34 27.98 C-16.09 30.27 -9.86 29.64 -4.56 27.81 C-0.74 25.11 1.52 22.45 3 18 C3.5 11.35 3.78 5.66 0 0 Z " fill="#0D3964" transform="translate(374,51)"/>
<path d="M0 0 C1.32 0.33 2.64 0.66 4 1 C4.29 2.09 4.58 3.19 4.88 4.31 C5.82 8.04 5.82 8.04 8 11 C8.12 14.19 8.12 14.19 8 17 C7.34 17 6.68 17 6 17 C5.9 16.36 5.79 15.72 5.69 15.06 C5.46 14.38 5.23 13.7 5 13 C4.01 12.67 3.02 12.34 2 12 C1.67 12.99 1.34 13.98 1 15 C-1.41 10.65 -2.44 7.57 -1.06 2.69 C-0.71 1.8 -0.36 0.91 0 0 Z " fill="#152535" transform="translate(307,263)"/>
<path d="M0 0 C4.29 0 8.58 0 13 0 C13 0.33 13 0.66 13 1 C10.69 1.33 8.38 1.66 6 2 C8.97 2.5 8.97 2.5 12 3 C11.34 4.98 10.68 6.96 10 9 C11.88 11.16 11.88 11.16 14.56 11.94 C15.37 12.29 16.17 12.64 17 13 C17.33 13.99 17.66 14.98 18 16 C14.03 16 12.38 15.14 9 13 C5.34 8.97 2.44 4.87 0 0 Z " fill="#ECF3F8" transform="translate(299,244)"/>
<path d="M0 0 C0.33 0.66 0.66 1.32 1 2 C0.34 2 -0.32 2 -1 2 C-1 2.66 -1 3.32 -1 4 C0.32 3.67 1.64 3.34 3 3 C-0.52 7.48 -5.57 9.64 -11 11 C-13.82 10.61 -13.82 10.61 -16 10 C-13.61 8.11 -11.93 6.98 -9 6 C-9.66 5.34 -10.32 4.68 -11 4 C-7.2 1.17 -4.81 -0.57 0 0 Z " fill="#C6DDEB" transform="translate(425,462)"/>
<path d="M0 0 C2 0 2 0 3.69 1.68 C4.31 2.4 4.93 3.13 5.56 3.88 C6.18 4.59 6.8 5.31 7.44 6.05 C9 8 9 8 10 10 C7.33 8.67 4.67 7.33 2 6 C2 14.25 2 22.5 2 31 C0 29 0 29 -0.23 26.11 C-0.22 24.91 -0.21 23.7 -0.2 22.46 C-0.19 20.51 -0.19 20.51 -0.18 18.52 C-0.16 17.14 -0.14 15.76 -0.12 14.38 C-0.11 12.99 -0.11 11.6 -0.1 10.21 C-0.07 6.81 -0.04 3.4 0 0 Z " fill="#5BBAE5" transform="translate(298,167)"/>
<path d="M0 0 C0 3.2 -0.63 5.61 -1.5 8.69 C-1.78 9.68 -2.06 10.68 -2.34 11.7 C-2.67 12.84 -2.67 12.84 -3 14 C-4.32 14.33 -5.64 14.66 -7 15 C-6.67 16.65 -6.34 18.3 -6 20 C-6.66 20 -7.32 20 -8 20 C-7.67 20.66 -7.34 21.32 -7 22 C-7 23.32 -7 24.64 -7 26 C-9.5 28.25 -9.5 28.25 -12 30 C-11.56 23.12 -10.08 18.13 -7 12 C-6.57 11.1 -6.14 10.21 -5.7 9.28 C-2.31 2.31 -2.31 2.31 0 0 Z " fill="#587181" transform="translate(40,48)"/>
<path d="M0 0 C2.44 1.56 2.44 1.56 4 4 C4.42 7.43 4.67 9.82 2.94 12.88 C-0.13 14.66 -2.46 15 -6 15 C-9 13 -9 13 -11 10 C-11 6.46 -10.66 4.13 -8.88 1.06 C-5.82 -0.67 -3.43 -0.42 0 0 Z M-6 1 C-8.36 5.26 -8.36 5.26 -9 10 C-8.34 10 -7.68 10 -7 10 C-7 10.99 -7 11.98 -7 13 C-3.05 13.18 -0.4 13.09 3 11 C3.35 6.9 3.35 6.9 1.88 3.19 C-0.67 1.58 -3.04 1.33 -6 1 Z " fill="#CAF4FD" transform="translate(257,281)"/>
<path d="M0 0 C1.12 0.03 1.12 0.03 2.26 0.05 C4.09 0.1 5.92 0.17 7.75 0.25 C7.75 0.58 7.75 0.91 7.75 1.25 C2.8 1.25 -2.15 1.25 -7.25 1.25 C-7.58 3.56 -7.91 5.87 -8.25 8.25 C-4.95 9.24 -1.65 10.23 1.75 11.25 C1.75 11.58 1.75 11.91 1.75 12.25 C-0.02 12.33 -1.79 12.39 -3.56 12.44 C-4.55 12.47 -5.53 12.51 -6.55 12.54 C-9.25 12.25 -9.25 12.25 -11.08 10.89 C-12.25 9.25 -12.25 9.25 -12.69 6.81 C-11.48 -0.23 -6.05 -0.28 0 0 Z " fill="#637A8F" transform="translate(193.25,256.75)"/>
<path d="M0 0 C0.82 0.01 1.64 0.02 2.49 0.03 C4.49 0.05 6.5 0.09 8.5 0.12 C8.5 0.46 8.5 0.78 8.5 1.12 C3.55 1.46 -1.4 1.78 -6.5 2.12 C-6.5 2.46 -6.5 2.78 -6.5 3.12 C-8.15 3.51 -8.15 3.51 -9.82 3.89 C-11.28 4.24 -12.73 4.59 -14.19 4.94 C-14.91 5.1 -15.63 5.27 -16.37 5.44 C-19.74 6.25 -22.29 7 -25.27 8.82 C-27.5 10.12 -27.5 10.12 -29.81 9.81 C-30.37 9.59 -30.93 9.36 -31.5 9.12 C-29.34 7.99 -27.17 6.87 -25 5.75 C-24.4 5.43 -23.8 5.12 -23.18 4.79 C-15.49 0.86 -8.58 -0.18 0 0 Z " fill="#67B6DE" transform="translate(255.5,236.875)"/>
<path d="M0 0 C1.49 0.99 1.49 0.99 3 2 C5.71 2.37 5.71 2.37 8.76 2.41 C9.88 2.45 11 2.49 12.15 2.53 C13.32 2.56 14.48 2.59 15.69 2.62 C16.87 2.66 18.05 2.7 19.26 2.74 C22.17 2.84 25.09 2.92 28 3 C26.86 4.84 25.71 6.67 24.56 8.5 C23.92 9.52 23.29 10.54 22.63 11.59 C22.09 12.39 21.55 13.18 21 14 C20.67 14 20.34 14 20 14 C19.63 9.68 20.7 7.6 23 4 C19.71 4.14 16.42 4.29 13.12 4.44 C12.19 4.48 11.25 4.52 10.29 4.56 C8.94 4.62 8.94 4.62 7.57 4.68 C6.74 4.72 5.92 4.76 5.06 4.79 C2.94 4.88 2.94 4.88 1 6 C0.34 5.67 -0.32 5.34 -1 5 C-0.67 3.35 -0.34 1.7 0 0 Z " fill="#E9F1F4" transform="translate(181,242)"/>
<path d="M0 0 C0 4.03 -1.61 5.84 -4 9 C-4.66 9 -5.32 9 -6 9 C-6.33 9.99 -6.66 10.98 -7 12 C-7.99 12.66 -8.98 13.32 -10 14 C-11.46 17.09 -11.46 17.09 -12.69 20.62 C-13.12 21.81 -13.56 23 -14.01 24.23 C-14.34 25.14 -14.66 26.06 -15 27 C-15.66 27 -16.32 27 -17 27 C-17.33 27.99 -17.66 28.98 -18 30 C-17.45 17.52 -8.38 8.38 0 0 Z " fill="#60B8E8" transform="translate(223,247)"/>
<path d="M0 0 C1.44 -0.03 2.87 -0.05 4.31 -0.06 C5.51 -0.08 5.51 -0.08 6.74 -0.1 C9 0 9 0 12 1 C12 2.32 12 3.64 12 5 C3.42 5 -5.16 5 -14 5 C-14 4.67 -14 4.34 -14 4 C-8.06 4 -2.12 4 4 4 C4 3.34 4 2.68 4 2 C2.68 2 1.36 2 0 2 C0 1.34 0 0.68 0 0 Z " fill="#758E9F" transform="translate(199,342)"/>
<path d="M0 0 C0.33 0 0.66 0 1 0 C1.33 3.3 1.66 6.6 2 10 C2.66 9.34 3.32 8.68 4 8 C4.33 10.97 4.66 13.94 5 17 C3.68 17.33 2.36 17.66 1 18 C1 20.31 1 22.62 1 25 C1.66 25.33 2.32 25.66 3 26 C1.02 26.99 -0.96 27.98 -3 29 C-2.87 28.25 -2.73 27.49 -2.6 26.72 C-1.12 17.82 -0.44 9 0 0 Z " fill="#D3DBE2" transform="translate(316,280)"/>
<path d="M0 0 C2.75 0.25 2.75 0.25 5 1 C5 2.65 5 4.3 5 6 C12.92 6 20.84 6 29 6 C29 6.33 29 6.66 29 7 C24.63 7.09 20.25 7.14 15.88 7.19 C14.64 7.21 13.4 7.24 12.12 7.26 C10.93 7.27 9.73 7.28 8.49 7.29 C7.39 7.31 6.29 7.32 5.16 7.34 C1.55 6.95 -0.87 5.79 -4 4 C-2.31 1.94 -2.31 1.94 0 0 Z " fill="#D1DADF" transform="translate(283,227)"/>
<path d="M0 0 C-1.65 0.33 -3.3 0.66 -5 1 C-4.67 1.99 -4.34 2.98 -4 4 C-12.94 8.77 -12.94 8.77 -17 9 C-17.99 8.34 -18.98 7.68 -20 7 C-6.48 -2.09 -6.48 -2.09 0 0 Z " fill="#385060" transform="translate(79,24)"/>
<path d="M0 0 C0.33 0 0.66 0 1 0 C1.33 3.96 1.66 7.92 2 12 C-1.96 12 -5.92 12 -10 12 C-10 11.34 -10 10.68 -10 10 C-9.01 10 -8.02 10 -7 10 C-6.67 8.68 -6.34 7.36 -6 6 C-4.68 6.33 -3.36 6.66 -2 7 C-1.34 4.69 -0.68 2.38 0 0 Z " fill="#D2DDE7" transform="translate(193,298)"/>
<path d="M0 0 C0.33 0 0.66 0 1 0 C1.69 25.28 1.69 25.28 -2 33 C-3.49 33.5 -3.49 33.5 -5 34 C-5.5 32.51 -5.5 32.51 -6 31 C-5 29 -4 27 -3 25 C-0.32 17.01 -0.39 8.34 0 0 Z " fill="#0B3768" transform="translate(305,283)"/>
<path d="M0 0 C-0.33 0.66 -0.66 1.32 -1 2 C-6.28 1.67 -11.56 1.34 -17 1 C-17.33 1.99 -17.66 2.98 -18 4 C-19.32 4 -20.64 4 -22 4 C-22 3.34 -22 2.68 -22 2 C-23.98 2 -25.96 2 -28 2 C-21.12 -2.59 -7.66 -2.55 0 0 Z " fill="#2D3F4B" transform="translate(265,227)"/>
<path d="M0 0 C1.24 3.58 0.75 6.34 0 10 C-2.97 9.67 -5.94 9.34 -9 9 C-8.67 7.02 -8.34 5.04 -8 3 C-5.36 3 -2.72 3 0 3 C0 2.01 0 1.02 0 0 Z " fill="#4F748B" transform="translate(211,333)"/>
<path d="M0 0 C4.48 2.96 7.6 5.06 10 10 C9.01 9.67 8.02 9.34 7 9 C6.67 10.98 6.34 12.96 6 15 C3.69 15.33 1.38 15.66 -1 16 C2.75 14 2.75 14 5 14 C3.87 9.03 3.87 9.03 1 5 C-0.32 4.3 -1.65 3.63 -3 3 C-2.01 2.67 -1.02 2.34 0 2 C0 1.34 0 0.68 0 0 Z " fill="#5BCDF0" transform="translate(312,181)"/>
<path d="M0 0 C1.32 0.66 2.64 1.32 4 2 C4.37 7.54 4.37 7.54 2.5 9.88 C1.76 10.43 1.76 10.43 1 11 C-0.32 10.01 -1.64 9.02 -3 8 C-2.01 5.36 -1.02 2.72 0 0 Z " fill="#A4B9CC" transform="translate(312,310)"/>
<path d="M0 0 C-3.12 0.94 -5.74 1.06 -8.98 0.88 C-9.92 0.83 -10.85 0.78 -11.82 0.73 C-12.78 0.68 -13.75 0.62 -14.75 0.56 C-15.73 0.51 -16.72 0.46 -17.73 0.4 C-20.15 0.27 -22.58 0.14 -25 0 C-25 -0.33 -25 -0.66 -25 -1 C-4.2 -2.8 -4.2 -2.8 0 0 Z " fill="#3B4F5D" transform="translate(409,23)"/>
<path d="M0 0 C0.66 0 1.32 0 2 0 C2 0.66 2 1.32 2 2 C3.65 2.33 5.3 2.66 7 3 C6.01 3.66 5.02 4.32 4 5 C5.32 5 6.64 5 8 5 C8 5.66 8 6.32 8 7 C8.66 7.33 9.32 7.66 10 8 C4.43 7.52 -0.67 6.7 -6 5 C-5.4 4.86 -4.8 4.71 -4.19 4.56 C-2.44 4.11 -0.71 3.57 1 3 C0.34 2.34 -0.32 1.68 -1 1 C-0.67 0.67 -0.34 0.34 0 0 Z " fill="#8FA9BD" transform="translate(80,469)"/>
<path d="M0 0 C2.95 2.74 5.19 5.38 7 9 C6.67 9.66 6.34 10.32 6 11 C3.94 11.62 3.94 11.62 2 12 C2 11.01 2 10.02 2 9 C1.01 8.67 0.02 8.34 -1 8 C-0.01 7.34 0.98 6.68 2 6 C1.01 6 0.02 6 -1 6 C-0.67 4.02 -0.34 2.04 0 0 Z " fill="#435564" transform="translate(447,48)"/>
<path d="M0 0 C3.24 2.39 5.51 4.2 7 8 C2.95 9.16 0.78 8.84 -3 7 C-2.01 4.69 -1.02 2.38 0 0 Z " fill="#405167" transform="translate(440,40)"/>
<path d="M0 0 C2.16 2.16 2.72 3.52 3.69 6.38 C3.96 7.15 4.23 7.92 4.51 8.71 C5.04 11.2 4.81 12.62 4 15 C4 14.34 4 13.68 4 13 C2.68 12.67 1.36 12.34 0 12 C-1.16 7.74 -0.76 4.32 0 0 Z " fill="#41556A" transform="translate(454,59)"/>
<path d="M0 0 C0.54 0.29 1.07 0.58 1.62 0.88 C4.32 2.15 7.17 3.06 10 4 C9.67 9.94 9.34 15.88 9 22 C8.67 22 8.34 22 8 22 C8 17.05 8 12.1 8 7 C6.68 6.34 5.36 5.68 4 5 C1.75 2.94 1.75 2.94 0 1 C0 0.67 0 0.34 0 0 Z " fill="#4390D0" transform="translate(215,320)"/>
<path d="M0 0 C3.78 1.34 6.61 3.02 9.75 5.5 C10.53 6.11 11.31 6.72 12.11 7.34 C14 9 14 9 15 11 C10.96 9.78 7.45 8.46 4 6 C3.67 5.01 3.34 4.02 3 3 C2.01 3 1.02 3 0 3 C0 2.01 0 1.02 0 0 Z " fill="#577084" transform="translate(425,29)"/>
<path d="M0 0 C5 1 5 1 7 3 C7.31 5.5 7.31 5.5 7 8 C6.01 8.66 5.02 9.32 4 10 C2.68 6.7 1.36 3.4 0 0 Z " fill="#4A7D93" transform="translate(309,258)"/>
<path d="M0 0 C1.65 0 3.3 0 5 0 C5.33 0.99 5.66 1.98 6 3 C6.66 3.33 7.32 3.66 8 4 C8 4.66 8 5.32 8 6 C8.99 6 9.98 6 11 6 C11 7.65 11 9.3 11 11 C6.86 7.62 3.19 4.33 0 0 Z " fill="#D7DCE5" transform="translate(311,163)"/>
<path d="M0 0 C-2.1 0.87 -4.2 1.72 -6.31 2.56 C-8.07 3.28 -8.07 3.28 -9.86 4 C-13 5 -13 5 -16 4 C-16.99 3.34 -17.98 2.68 -19 2 C-18.34 2 -17.68 2 -17 2 C-17 1.34 -17 0.68 -17 0 C-14.61 0.58 -12.33 1.22 -10 2 C-8.85 1.5 -7.69 1.01 -6.5 0.5 C-3 -1 -3 -1 0 0 Z " fill="#7D9FBF" transform="translate(424,470)"/>
<path d="M0 0 C1 3 1 3 0 5.48 C-0.47 6.37 -0.95 7.27 -1.44 8.19 C-1.91 9.09 -2.38 9.99 -2.87 10.92 C-3.24 11.61 -3.62 12.29 -4 13 C-4.66 12.01 -5.32 11.02 -6 10 C-5.12 6.81 -5.12 6.81 -4 4 C-3.34 4 -2.68 4 -2 4 C-1.34 2.68 -0.68 1.36 0 0 Z " fill="#97B3CB" transform="translate(456,430)"/>
<path d="M0 0 C0.33 0.66 0.66 1.32 1 2 C4.47 1.5 4.47 1.5 8 1 C8.33 2.32 8.66 3.64 9 5 C6.03 5 3.06 5 0 5 C0 4.34 0 3.68 0 3 C-0.66 2.34 -1.32 1.68 -2 1 C-1.34 0.67 -0.68 0.34 0 0 Z " fill="#CEE2F4" transform="translate(202,330)"/>
<path d="M0 0 C3.3 0 6.6 0 10 0 C9.67 2.31 9.34 4.62 9 7 C8.67 6.34 8.34 5.68 8 5 C6.02 5 4.04 5 2 5 C2.66 4.01 3.32 3.02 4 2 C2.68 1.34 1.36 0.68 0 0 Z " fill="#D8E0E7" transform="translate(185,269)"/>
<path d="M0 0 C1.98 0.66 3.96 1.32 6 2 C5.34 3.32 4.68 4.64 4 6 C1.62 5.69 1.62 5.69 -1 5 C-1.66 4.01 -2.32 3.02 -3 2 C-2.34 2 -1.68 2 -1 2 C-0.67 1.34 -0.34 0.68 0 0 Z " fill="#C5DBE9" transform="translate(428,458)"/>
<path d="M0 0 C0.66 0.66 1.32 1.32 2 2 C1.67 2.66 1.34 3.32 1 4 C3.97 4.5 3.97 4.5 7 5 C7 5.33 7 5.66 7 6 C2.71 5.67 -1.58 5.34 -6 5 C-2 1 -2 1 0 0 Z " fill="#8B97A1" transform="translate(289,341)"/>
<path d="M0 0 C0.33 0 0.66 0 1 0 C1.21 3.09 1.24 5.42 0.06 8.31 C-3.2 10.98 -6.9 10.83 -11 11 C-11.33 10.34 -11.66 9.68 -12 9 C-10.01 8.77 -8.03 8.54 -6.04 8.32 C-3.81 8.03 -3.81 8.03 -1 7 C-0.67 4.69 -0.34 2.38 0 0 Z " fill="#C6EDFD" transform="translate(286,285)"/>
<path d="M0 0 C1.49 0.99 1.49 0.99 3 2 C6.2 2.46 6.2 2.46 9.69 2.62 C11.46 2.74 11.46 2.74 13.26 2.85 C14.62 2.93 14.62 2.93 16 3 C16 3.33 16 3.66 16 4 C15.08 4.06 14.17 4.12 13.23 4.18 C12.04 4.27 10.85 4.35 9.62 4.44 C7.85 4.56 7.85 4.56 6.04 4.68 C3.08 4.81 3.08 4.81 1 6 C0.34 5.67 -0.32 5.34 -1 5 C-0.67 3.35 -0.34 1.7 0 0 Z " fill="#CCD7DE" transform="translate(181,242)"/>
<path d="M0 0 C0.33 0 0.66 0 1 0 C1.11 0.88 1.22 1.76 1.33 2.67 C1.49 3.83 1.65 4.99 1.81 6.19 C1.96 7.34 2.11 8.48 2.27 9.67 C3 13.02 4.07 15.19 6 18 C3 18 3 18 1.32 16.45 C-0.48 13.1 -0.29 10.53 -0.19 6.75 C-0.16 5.49 -0.13 4.22 -0.11 2.92 C-0.07 1.96 -0.04 0.99 0 0 Z " fill="#14426A" transform="translate(393,59)"/>
<path d="M0 0 C2.06 0.44 2.06 0.44 4 1 C4 2.65 4 4.3 4 6 C2.35 6 0.7 6 -1 6 C-1.04 4.33 -1.04 2.67 -1 1 C-0.67 0.67 -0.34 0.34 0 0 Z " fill="#EEFCFD" transform="translate(405,61)"/>
<path d="M0 0 C0.66 0 1.32 0 2 0 C2.21 5.19 1.59 9.13 0 14 C-1.55 9.36 -1.5 4.67 0 0 Z " fill="#ACC2D3" transform="translate(458,416)"/>
<path d="M0 0 C0 0.33 0 0.66 0 1 C-1.33 1.43 -1.33 1.43 -2.69 1.88 C-4.33 2.43 -4.33 2.43 -6 3 C-7.39 3.43 -7.39 3.43 -8.81 3.88 C-11.19 4.79 -11.19 4.79 -11.81 7.12 C-11.87 7.74 -11.94 8.36 -12 9 C-12.31 6.75 -12.31 6.75 -12 4 C-8.3 -0.15 -5.4 -0.42 0 0 Z " fill="#C4F6FD" transform="translate(233,281)"/>
<path d="M0 0 C0 1.98 0 3.96 0 6 C-1.65 5.67 -3.3 5.34 -5 5 C-5 3.68 -5 2.36 -5 1 C-3 0 -3 0 0 0 Z " fill="#F4FDFC" transform="translate(418,60)"/>
<path d="M0 0 C0 0.66 0 1.32 0 2 C-5.27 5.22 -5.27 5.22 -7 6 C-7.66 5.67 -8.32 5.34 -9 5 C-8.34 4.34 -7.68 3.68 -7 3 C-7.66 3 -8.32 3 -9 3 C-9 2.34 -9 1.68 -9 1 C-6.04 -0.48 -3.26 -0.06 0 0 Z " fill="#7D9CC0" transform="translate(433,463)"/>
<path d="M0 0 C0.33 0 0.66 0 1 0 C1 2.97 1 5.94 1 9 C2.65 9 4.3 9 6 9 C4.71 10.38 3.37 11.71 2 13 C1.34 13 0.68 13 0 13 C0 8.71 0 4.42 0 0 Z " fill="#59ABE0" transform="translate(223,342)"/>
<path d="M0 0 C2.48 0.99 2.48 0.99 5 2 C3.61 5.37 2.02 6.99 -1 9 C-0.67 6.03 -0.34 3.06 0 0 Z " fill="#405364" transform="translate(29,69)"/>
<path d="M0 0 C-1.65 0.33 -3.3 0.66 -5 1 C-4.67 1.99 -4.34 2.98 -4 4 C-4.99 4.33 -5.98 4.66 -7 5 C-7 4.34 -7 3.68 -7 3 C-8.98 3.33 -10.96 3.66 -13 4 C-11.73 1.46 -10.8 1.31 -8.19 0.31 C-7.5 0.04 -6.81 -0.23 -6.11 -0.51 C-3.71 -1.07 -2.31 -0.77 0 0 Z " fill="#6A808E" transform="translate(79,24)"/>
<path d="M0 0 C4.24 -0.33 6.36 -0.44 9.94 2 C10.62 2.66 11.3 3.32 12 4 C7.12 4.35 4.23 3.42 0 1 C0 0.67 0 0.34 0 0 Z " fill="#DBE1E5" transform="translate(96,71)"/>
<path d="M0 0 C3.8 1.49 5.61 3.76 8 7 C5 7 5 7 2.31 4.62 C0 2 0 2 0 0 Z " fill="#53B6E1" transform="translate(322,191)"/>
<path d="M0 0 C3.67 3.08 4.57 5.25 5 10 C3.68 8.35 2.36 6.7 1 5 C1.33 4.34 1.66 3.68 2 3 C0.68 2.67 -0.64 2.34 -2 2 C-1.34 2 -0.68 2 0 2 C0 1.34 0 0.68 0 0 Z " fill="#DAE1E6" transform="translate(147,57)"/>
<path d="M0 0 C3.3 0.66 6.6 1.32 10 2 C10 2.33 10 2.66 10 3 C9.06 3.2 9.06 3.2 8.1 3.4 C6.88 3.67 6.88 3.67 5.62 3.94 C4.81 4.11 4 4.29 3.16 4.46 C0.97 4.92 0.97 4.92 -1 6 C-0.67 4.02 -0.34 2.04 0 0 Z " fill="#434C5C" transform="translate(133,52)"/>
<path d="M0 0 C0.78 0.04 1.57 0.08 2.38 0.12 C1.06 0.46 -0.26 0.78 -1.62 1.12 C-1.95 3.76 -2.29 6.41 -2.62 9.12 C-4.62 7.12 -4.62 7.12 -4.88 4.62 C-4.52 1.04 -3.6 0.17 0 0 Z " fill="#BDF9FE" transform="translate(310.625,184.875)"/>
<path d="M0 0 C1 2 1 2 0.44 3.95 C0.15 4.66 -0.14 5.38 -0.44 6.12 C-0.72 6.85 -1.01 7.57 -1.31 8.32 C-1.54 8.87 -1.76 9.43 -2 10 C-2.66 10 -3.32 10 -4 10 C-3.43 6.04 -2.19 3.33 0 0 Z " fill="#D9E2EA" transform="translate(162,173)"/>
<path d="M0 0 C0.93 0.28 0.93 0.28 1.88 0.56 C4.04 1.24 4.04 1.24 6 0 C6.66 1.98 7.32 3.96 8 6 C4.09 4.73 2.21 3.49 0 0 Z " fill="#7B93AB" transform="translate(52,460)"/>
<path d="M0 0 C4.29 0 8.58 0 13 0 C13 0.33 13 0.66 13 1 C12.37 1.05 11.75 1.1 11.1 1.15 C10.28 1.22 9.47 1.3 8.62 1.38 C7.81 1.44 7 1.51 6.16 1.59 C3.8 1.83 3.8 1.83 2 4 C1.34 2.68 0.68 1.36 0 0 Z " fill="#B3C4D1" transform="translate(299,244)"/>
<path d="M0 0 C0 0.33 0 0.66 0 1 C-1.11 1.19 -1.11 1.19 -2.25 1.38 C-4.98 1.88 -4.98 1.88 -7.19 3.12 C-8.08 3.56 -8.08 3.56 -9 4 C-9.66 3.67 -10.32 3.34 -11 3 C-8.22 -1.17 -4.53 -0.22 0 0 Z " fill="#4A95CC" transform="translate(414,45)"/>
<path d="M0 0 C2.81 -0.25 2.81 -0.25 6 0 C7.88 2 7.88 2 9 4 C8.01 4.5 8.01 4.5 7 5 C6.01 4.34 5.02 3.68 4 3 C4 2.34 4 1.68 4 1 C2.68 0.67 1.36 0.34 0 0 Z " fill="#B2BCC9" transform="translate(195,321)"/>
<path d="M0 0 C0.66 0 1.32 0 2 0 C2 2.67 2 5.33 2 8 C0.68 6.35 -0.64 4.7 -2 3 C-1 1 -1 1 0 0 Z " fill="#829FBC" transform="translate(41,444)"/>
<path d="M0 0 C0.66 0 1.32 0 2 0 C2 0.99 2 1.98 2 3 C2.66 3.33 3.32 3.66 4 4 C3.01 5.48 3.01 5.48 2 7 C1.34 7 0.68 7 0 7 C0 4.69 0 2.38 0 0 Z " fill="#D5DBE0" transform="translate(129,62)"/>
</svg>
